<?xml version="1.0" encoding="utf-8"?>
<!-- Generator: Adobe Illustrator 18.0.0, SVG Export Plug-In . SVG Version: 6.00 Build 0)  -->
<!DOCTYPE svg PUBLIC "-//W3C//DTD SVG 1.1//EN" "http://www.w3.org/Graphics/SVG/1.1/DTD/svg11.dtd">
<svg version="1.1" id="图层_1" xmlns="http://www.w3.org/2000/svg" xmlns:xlink="http://www.w3.org/1999/xlink" x="0px" y="0px"
	 viewBox="0 0 480 1200" enable-background="new 0 0 480 1200" xml:space="preserve">
<g>
	<path fill="#E18037" d="M429.3,268.5c0,4.1-3.3,7.4-7.4,7.4h-93.7c-4.1,0-7.4-3.3-7.4-7.4V168.4c0-4.1,3.3-7.4,7.4-7.4h93.7
		c4.1,0,7.4,3.3,7.4,7.4L429.3,268.5L429.3,268.5z"/>
	<path fill="#46807C" d="M266.4,422c0,4.1-3.3,7.4-7.4,7.4h-82.2c-4.1,0-7.4-3.3-7.4-7.4V319.4c0-4.1,3.3-7.4,7.4-7.4H259
		c4.1,0,7.4,3.3,7.4,7.4V422z"/>
	<path fill="#CBD262" d="M406.1,433.7c0,4.1-3.3,7.4-7.4,7.4H289.5c-4.1,0-7.4-3.3-7.4-7.4V292.4c0-4.1,3.3-7.4,7.4-7.4h109.2
		c4.1,0,7.4,3.3,7.4,7.4V433.7z"/>
	<path fill="#C34222" d="M180.7,164.7c-1.3,0.1-59.6-26.6-82.3-4.2c-10.1,10.1,4.9,22.9,19.6,21.6
		C132.9,182.2,148.6,173.5,180.7,164.7z"/>
	<path fill="#C34222" d="M144.6,139.1c-18.9,0.3-89.8,0-93.9-28.9c1.4-16.6,16.8-11.8,18.9-11.8C87.7,101.5,128.3,137.3,144.6,139.1
		z"/>
	<path fill="#882022" d="M197.3,139.9c-21.4-7.7-32.1,0.1-50.9-9.5c-18.8-9.6-30.4-21.2-25.5-34.7s24.2-12.8,44.3,9.8
		C185.7,128.6,189.8,133.2,197.3,139.9z"/>
	<path fill="#E18037" d="M216.9,144.6c-8.1-5.8-25.2-39.7-9.5-62.2c7.8-7.1,19.6-2.9,19.1,7.6C225.8,106.3,208.5,122.1,216.9,144.6"
		/>
	<path fill="#C34222" d="M150.1,147.8c34.3-6.7,61.4,3.5,71,10.6c22.8,15.1,41.1,63.9,42.2,60.2c-4.7-1.6-24.5-28.5-38.8-40.1
		C224.4,178.5,208.1,161.6,150.1,147.8z"/>
	<path fill="#E18037" d="M139.5,186.6c13.2,1.6,21.3-10.4,64.3-1c19.7,5,45.6,32,51,34.4c-1-3.3-34.3-41.1-51.5-46.8
		C172.5,162.5,146.7,185.7,139.5,186.6z"/>
	<path fill="#E18037" d="M265.7,234c-11.7-2.5-51.1-45.8-73.6-36.1c-16.6,8.2-9.4,22.3-5.9,25.9s12.1,13.3,50.9,9.6
		C251.7,232.2,257.2,233.5,265.7,234z"/>
	<path fill="#C34222" d="M264.2,241.3c-71.6,11.5-105.4-26.7-115.4,11.5c0,0-1.3,21.2,23.6,22C206.1,271.7,241,247.4,264.2,241.3z"
		/>
	<path fill="#882022" d="M122.1,254.6c-34.2-46.8,25.6-66.1,45.8-65.1c-15.5,10.5-8.6,27.7,5.9,39c-37.6-2.7-38.5,38.4-20.8,45.2
		c-1.9,0.9-8.2,4.1-21.2,2.2C132.9,265.3,122.1,254.6,122.1,254.6z"/>
	<path fill="#E18037" d="M119.8,281.1c-17.2,2.2-41.9-38.9-62.4-25.2C46,267.7,79.8,290.3,119.8,281.1z"/>
	<path fill="#882022" d="M207.6,274.9c-11,11.1-38.3,33.1-43.7,37.5c-12.7,11.7-71.6,38.8-69.1-5.4c0,0,2.7-18.2,32.4-22.1
		C140.4,282.4,168.9,288.9,207.6,274.9z"/>
	<path fill="#E18037" d="M166.9,339.8c-39.1,17.3-39.6,61-66.2,39.2c-19.3-35.6,49.9-42,63.3-56.7
		C159.3,330.1,165.3,338.9,166.9,339.8z"/>
	<path fill="#882022" d="M213.4,344.5c-4.4,1.5-19.7,2.6-29.1,2.6c-62.7,2.3-31.6,72.6,2.7,43.4c0,0,4-4.4,7-18.1
		C196,365.9,207.3,348.7,213.4,344.5z"/>
	<path fill="#E18037" d="M202.6,391.7c-15.5-31.6,46.3-58.2,54.3-75C252.8,357.1,225.2,410.9,202.6,391.7z"/>
	<path fill="#C34222" d="M211.1,284.7c-42.6,10.2-30.1,87,34.6,33.1C240.8,313.9,223.1,313.1,211.1,284.7z"/>
	<path fill="#E18037" d="M273.3,247.7c-24.1,2.4-54.4,23.1-54.2,33.1c0.7,8.4,16.5,28.8,32.4,28.9
		C269.5,305.9,269.6,283.3,273.3,247.7z"/>
	<path fill="#C34222" d="M281.3,251.6c-1.6,14.9,21.1,29.1,26.7,18.7C311.5,259.6,285.8,259.1,281.3,251.6z"/>
	<path fill="#C34222" d="M278.1,241.5c-10.8-34.3,15.5-69.1,26.9-45.8C309.4,208.2,281.8,226.5,278.1,241.5z"/>
	<g>
		<g>
			<circle fill="#CBD262" cx="272.3" cy="146.2" r="6.1"/>
			<circle fill="#CBD262" cx="275.4" cy="159.3" r="6.1"/>
			<circle fill="#CBD262" cx="278.4" cy="174.5" r="6.1"/>
			<circle fill="#CBD262" cx="278.4" cy="188" r="6.1"/>
			<circle fill="#CBD262" cx="184.4" cy="192.7" r="6.1"/>
			<circle fill="#CBD262" cx="122.1" cy="191.7" r="6.1"/>
			<circle fill="#CBD262" cx="111.1" cy="199.8" r="6.1"/>
			<circle fill="#CBD262" cx="103.3" cy="212" r="6.1"/>
			<circle fill="#CBD262" cx="99.8" cy="226.6" r="6.1"/>
			<circle fill="#CBD262" cx="104.3" cy="241.6" r="6.1"/>
			<circle fill="#CBD262" cx="111.1" cy="255.1" r="6.1"/>
			<circle fill="#CBD262" cx="119.8" cy="268.8" r="6.1"/>
			<circle fill="#CBD262" cx="176" cy="314.8" r="6.1"/>
			<circle fill="#CBD262" cx="177" cy="328.8" r="6.1"/>
			<circle fill="#CBD262" cx="187.3" cy="337.9" r="6.1"/>
			<circle fill="#CBD262" cx="101.7" cy="189.5" r="6.1"/>
			<circle fill="#CBD262" cx="88.8" cy="180.6" r="6.1"/>
			<circle fill="#CBD262" cx="83.9" cy="166.6" r="6.1"/>
			<circle fill="#CBD262" cx="88.8" cy="153.5" r="6.1"/>
			<circle fill="#CBD262" cx="101.7" cy="146.5" r="6.1"/>
			<circle fill="#CBD262" cx="172.2" cy="202.7" r="6.1"/>
			<circle fill="#CBD262" cx="175.2" cy="217.7" r="6.1"/>
			<path fill="#CBD262" d="M287.5,155.2c-3.3,0-6.1,2.7-6.1,6.1s2.7,6.1,6.1,6.1c3.3,0,6.1-2.7,6.1-6.1S290.8,155.2,287.5,155.2z"/>
			<path fill="#CBD262" d="M288.3,141.1c-3.3,0-6.1,2.7-6.1,6.1s2.7,6.1,6.1,6.1c3.3,0,6.1-2.7,6.1-6.1S291.7,141.1,288.3,141.1z"/>
			<path fill="#CBD262" d="M288.3,126.7c-3.3,0-6.1,2.7-6.1,6.1s2.7,6.1,6.1,6.1c3.3,0,6.1-2.7,6.1-6.1S291.7,126.7,288.3,126.7z"/>
			<path fill="#CBD262" d="M293.6,112.6c-3.3,0-6.1,2.7-6.1,6.1s2.7,6.1,6.1,6.1c3.3,0,6.1-2.7,6.1-6.1S296.9,112.6,293.6,112.6z"/>
			<path fill="#CBD262" d="M300.4,98.9c-3.3,0-6.1,2.7-6.1,6.1s2.7,6.1,6.1,6.1c3.3,0,6.1-2.7,6.1-6.1S303.8,98.9,300.4,98.9z"/>
			<path fill="#CBD262" d="M309.1,88.2c-3.3,0-6.1,2.7-6.1,6.1s2.7,6.1,6.1,6.1c3.3,0,6.1-2.7,6.1-6.1S312.5,88.2,309.1,88.2z"/>
			<circle fill="#CBD262" cx="303.1" cy="72" r="6.1"/>
			<circle fill="#CBD262" cx="313.3" cy="62.2" r="6.1"/>
			<circle fill="#CBD262" cx="309.9" cy="49.2" r="6.1"/>
			<circle fill="#CBD262" cx="296.3" cy="43.2" r="6.1"/>
			<circle fill="#CBD262" cx="269.3" cy="56.9" r="6.1"/>
			<circle fill="#CBD262" cx="282.3" cy="47.4" r="6.1"/>
			<circle fill="#CBD262" cx="263.2" cy="72" r="6.1"/>
			<circle fill="#CBD262" cx="261.1" cy="87.1" r="6.1"/>
			<path fill="#CBD262" d="M268.3,101.8c0-3.3-2.7-6.1-6.1-6.1c-3.3,0-6.1,2.7-6.1,6.1s2.7,6.1,6.1,6.1
				C265.6,107.9,268.3,105.2,268.3,101.8z"/>
			<path fill="#CBD262" d="M270.5,116c0-3.3-2.7-6.1-6.1-6.1c-3.3,0-6.1,2.7-6.1,6.1c0,3.3,2.7,6.1,6.1,6.1
				C267.7,122.1,270.5,119.4,270.5,116z"/>
			<path fill="#CBD262" d="M273.2,130.8c0-3.3-2.7-6.1-6.1-6.1c-3.3,0-6.1,2.7-6.1,6.1s2.7,6.1,6.1,6.1S273.2,134.1,273.2,130.8z"/>
			<path fill="#CBD262" d="M319.4,78c-3.3,0-6.1,2.7-6.1,6.1c0,3.3,2.7,6.1,6.1,6.1c3.3,0,6.1-2.7,6.1-6.1
				C325.4,80.8,322.7,78,319.4,78z"/>
			<path fill="#CBD262" d="M331.5,70.2c-3.3,0-6.1,2.7-6.1,6.1c0,3.3,2.7,6.1,6.1,6.1c3.3,0,6.1-2.7,6.1-6.1S334.9,70.2,331.5,70.2z
				"/>
			<path fill="#CBD262" d="M345,65.4c-3.3,0-6.1,2.7-6.1,6.1s2.7,6.1,6.1,6.1c3.3,0,6.1-2.7,6.1-6.1S348.3,65.4,345,65.4z"/>
			<path fill="#CBD262" d="M358.5,62.2c-3.3,0-6.1,2.7-6.1,6.1s2.7,6.1,6.1,6.1c3.3,0,6.1-2.7,6.1-6.1S361.8,62.2,358.5,62.2z"/>
			<circle fill="#CBD262" cx="372.6" cy="69.6" r="6.1"/>
			<circle fill="#CBD262" cx="384.3" cy="76.3" r="6.1"/>
			<path fill="#CBD262" d="M389.3,82.8c-3.3,0-6.1,2.7-6.1,6.1s2.7,6.1,6.1,6.1c3.3,0,6.1-2.7,6.1-6.1S392.7,82.8,389.3,82.8z"/>
			<path fill="#CBD262" d="M382.6,95.8c-3.3,0-6.1,2.7-6.1,6.1s2.7,6.1,6.1,6.1c3.3,0,6.1-2.7,6.1-6.1S385.9,95.8,382.6,95.8z"/>
			<path fill="#CBD262" d="M369.3,92.8c-3.3,0-6.1,2.7-6.1,6.1s2.7,6.1,6.1,6.1c3.3,0,6.1-2.7,6.1-6.1S372.7,92.8,369.3,92.8z"/>
		</g>
	</g>
</g>
<g>
	<path fill="#838383" d="M213.2,1132.4c0,1.8-1.4,3.2-3.2,3.2h-48.7c-1.8,0-3.2-1.4-3.2-3.2v-63c0-1.8,1.4-3.2,3.2-3.2h48.7
		c1.8,0,3.2,1.4,3.2,3.2V1132.4z"/>
	<path fill="#C3C4C5" d="M223.6,1058.7c0,1.8-1.4,3.2-3.2,3.2h-41.9c-1.8,0-3.2-1.4-3.2-3.2V1014c0-1.8,1.4-3.2,3.2-3.2h41.9
		c1.8,0,3.2,1.4,3.2,3.2V1058.7z"/>
	<path fill="#D6D7D7" d="M150.9,1127.2c0,1.8-1.4,3.2-3.2,3.2h-36.6c-1.8,0-3.2-1.4-3.2-3.2v-45.7c0-1.8,1.4-3.2,3.2-3.2h36.6
		c1.8,0,3.2,1.4,3.2,3.2V1127.2z"/>
	<g>
		<g>
			<circle fill="#C3C4C5" cx="153.6" cy="1004.4" r="2.6"/>
			<circle fill="#C3C4C5" cx="155" cy="1010" r="2.6"/>
			<circle fill="#C3C4C5" cx="156.2" cy="1016.8" r="2.6"/>
			<circle fill="#C3C4C5" cx="156.2" cy="1022.9" r="2.6"/>
			<circle fill="#C3C4C5" cx="114.3" cy="1025.1" r="2.6"/>
			<circle fill="#C3C4C5" cx="86.5" cy="1024.5" r="2.6"/>
			<circle fill="#C3C4C5" cx="81.7" cy="1028.1" r="2.6"/>
			<circle fill="#C3C4C5" cx="78.3" cy="1033.5" r="2.6"/>
			<circle fill="#C3C4C5" cx="76.7" cy="1040" r="2.6"/>
			<circle fill="#C3C4C5" cx="78.7" cy="1046.8" r="2.6"/>
			<circle fill="#C3C4C5" cx="81.7" cy="1052.9" r="2.6"/>
			<circle fill="#C3C4C5" cx="85.5" cy="1058.9" r="2.6"/>
			<circle fill="#C3C4C5" cx="110.7" cy="1079.5" r="2.6"/>
			<circle fill="#C3C4C5" cx="111.1" cy="1085.7" r="2.6"/>
			<circle fill="#C3C4C5" cx="115.7" cy="1089.7" r="2.6"/>
			<circle fill="#C3C4C5" cx="77.5" cy="1023.5" r="2.6"/>
			<circle fill="#C3C4C5" cx="71.8" cy="1019.7" r="2.6"/>
			<circle fill="#C3C4C5" cx="69.6" cy="1013.4" r="2.6"/>
			<circle fill="#C3C4C5" cx="71.8" cy="1007.6" r="2.6"/>
			<circle fill="#C3C4C5" cx="77.5" cy="1004.4" r="2.6"/>
			<circle fill="#C3C4C5" cx="108.9" cy="1029.5" r="2.6"/>
			<circle fill="#C3C4C5" cx="110.3" cy="1036.2" r="2.6"/>
			<circle fill="#C3C4C5" cx="160.4" cy="1011" r="2.6"/>
			<circle fill="#C3C4C5" cx="160.8" cy="1004.8" r="2.6"/>
			<circle fill="#C3C4C5" cx="160.8" cy="998.3" r="2.6"/>
			<circle fill="#C3C4C5" cx="163" cy="991.9" r="2.6"/>
			<circle fill="#C3C4C5" cx="166" cy="985.8" r="2.6"/>
			<circle fill="#C3C4C5" cx="170.1" cy="981" r="2.6"/>
			<circle fill="#C3C4C5" cx="167.3" cy="971.1" r="2.6"/>
			<circle fill="#C3C4C5" cx="171.9" cy="966.7" r="2.6"/>
			<circle fill="#C3C4C5" cx="170.3" cy="961.1" r="2.6"/>
			<circle fill="#C3C4C5" cx="164.2" cy="958.2" r="2.6"/>
			<circle fill="#C3C4C5" cx="152.2" cy="964.5" r="2.6"/>
			<circle fill="#C3C4C5" cx="158" cy="960.3" r="2.6"/>
			<circle fill="#C3C4C5" cx="149.5" cy="971.1" r="2.6"/>
			<circle fill="#C3C4C5" cx="148.5" cy="978" r="2.6"/>
			<circle fill="#C3C4C5" cx="149.1" cy="984.4" r="2.6"/>
			<circle fill="#C3C4C5" cx="149.9" cy="990.9" r="2.6"/>
			<circle fill="#C3C4C5" cx="151.4" cy="997.3" r="2.6"/>
			<circle fill="#C3C4C5" cx="174.5" cy="976.6" r="2.6"/>
			<circle fill="#C3C4C5" cx="179.9" cy="972.9" r="2.6"/>
			<circle fill="#C3C4C5" cx="186" cy="970.9" r="2.6"/>
			<circle fill="#C3C4C5" cx="192" cy="969.5" r="2.6"/>
			<circle fill="#C3C4C5" cx="198.3" cy="970.1" r="2.6"/>
			<circle fill="#C3C4C5" cx="203.5" cy="972.9" r="2.6"/>
			<circle fill="#C3C4C5" cx="205.7" cy="978.8" r="2.6"/>
			<circle fill="#C3C4C5" cx="202.7" cy="984.4" r="2.6"/>
			<circle fill="#C3C4C5" cx="196.9" cy="983.2" r="2.6"/>
		</g>
	</g>
	<path fill="#595757" d="M156.2,1046.8c-4.8-15.3,6.8-30.8,12.1-20.5C170.1,1031.9,157.8,1040,156.2,1046.8z"/>
	<path fill="#595757" d="M157.6,1051.3c-0.6,6.6,9.5,12.9,11.9,8.3C171.1,1054.9,159.6,1054.7,157.6,1051.3z"/>
	<path fill="#99999A" d="M154,1049.5c-10.7,1-24.4,10.3-24.2,14.7c0.2,3.8,7.2,12.9,14.5,12.9C152.4,1075.4,152.4,1065.4,154,1049.5
		z"/>
	<path fill="#99999A" d="M122.6,1113.7c-6.8-14.1,20.7-26,24.2-33.4C144.9,1098.4,132.6,1122.3,122.6,1113.7z"/>
	<path fill="#595757" d="M126.4,1066c-18.9,4.4-13.5,38.9,15.5,14.7C139.5,1079,131.6,1078.6,126.4,1066z"/>
	<path fill="#231815" d="M127.2,1092.7c-2,0.6-8.9,1.2-12.9,1.2c-28,1-14.1,32.4,1.2,19.3c0,0,1.8-2,3-8.1
		C119.5,1102.2,124.6,1094.6,127.2,1092.7z"/>
	<path fill="#99999A" d="M106.7,1090.5c-17.5,7.7-17.7,27.2-29.6,17.5c-8.7-15.9,22.3-18.7,28.2-25.4
		C103.2,1086.3,105.8,1090.1,106.7,1090.5z"/>
	<path fill="#231815" d="M124.8,1061.5c-4.8,4.8-17.1,14.7-19.5,16.7c-5.6,5.2-32,17.3-30.8-2.4c0,0,1.2-8.1,14.5-9.9
		C94.8,1065,107.5,1067.8,124.8,1061.5z"/>
	<path fill="#99999A" d="M85.5,1064.4c-7.7,1-18.7-17.3-27.8-11.3C52.7,1058.5,67.8,1068.6,85.5,1064.4z"/>
	<path fill="#231815" d="M86.5,1052.7c-15.3-20.9,11.5-29.6,20.3-29c-6.8,4.6-3.8,12.3,2.6,17.3c-16.7-1.2-17.1,17.1-9.3,20.1
		c-0.8,0.4-3.6,1.8-9.5,1C91.4,1057.3,86.5,1052.7,86.5,1052.7z"/>
	<path fill="#595757" d="M149.9,1046.6c-32,5-46.9-11.9-51.3,5c0,0-0.6,9.5,10.5,9.9C124.2,1060.3,139.7,1049.5,149.9,1046.6z"/>
	<path fill="#99999A" d="M150.5,1043.4c-5.2-1.2-22.8-20.3-32.8-16.1c-7.4,3.6-4.2,9.9-2.6,11.5c1.6,1.6,5.4,5.8,22.8,4.2
		C144.3,1042.6,146.9,1043.2,150.5,1043.4z"/>
	<path fill="#99999A" d="M94.4,1022.3c5.8,0.6,9.5-4.6,28.8-0.4c8.9,2.2,20.3,14.3,22.8,15.3c-0.4-1.4-15.3-18.3-23-20.9
		C109.1,1011.6,97.6,1021.9,94.4,1022.3z"/>
	<path fill="#595757" d="M99,1005c15.3-3,27.4,1.6,31.6,4.6c10.3,6.6,18.3,28.6,18.7,26.8c-2-0.6-10.9-12.7-17.3-17.9
		C132.2,1018.6,125,1011.2,99,1005z"/>
	<path fill="#99999A" d="M128.8,1003.5c-3.6-2.6-11.3-17.7-4.2-27.8c3.4-3.2,8.7-1.4,8.5,3.4C132.8,986.4,125.2,993.5,128.8,1003.5"
		/>
	<path fill="#231815" d="M120.1,1001.3c-9.5-3.4-14.3,0-22.8-4.2c-8.5-4.2-13.5-9.5-11.3-15.5c2.2-6,10.9-5.6,19.7,4.4
		C114.9,996.3,116.7,998.5,120.1,1001.3z"/>
	<path fill="#595757" d="M96.6,1001.1c-8.5,0.2-40.1,0-41.9-12.9c0.6-7.4,7.4-5.2,8.5-5.2C71.2,984.4,89.3,1000.3,96.6,1001.1z"/>
	<path fill="#595757" d="M112.7,1012.6c-0.6,0-26.6-11.9-36.6-1.8c-4.4,4.4,2.2,10.3,8.7,9.7C91.4,1020.3,98.4,1016.4,112.7,1012.6z
		"/>
</g>
<g>
	<path fill="#98B259" d="M213.2,655.2c0,1.8-1.4,3.2-3.2,3.2h-48.7c-1.8,0-3.2-1.4-3.2-3.2v-63c0-1.8,1.4-3.2,3.2-3.2h48.7
		c1.8,0,3.2,1.4,3.2,3.2C213.2,592.2,213.2,655.2,213.2,655.2z"/>
	<path fill="#A36C63" d="M223.4,581.6c0,1.8-1.4,3.2-3.2,3.2h-41.7c-1.8,0-3.2-1.4-3.2-3.2v-44.7c0-1.8,1.4-3.2,3.2-3.2h41.9
		c1.8,0,3.2,1.4,3.2,3.2v44.7H223.4z"/>
	<path fill="#224631" d="M150.9,650c0,1.8-1.4,3.2-3.2,3.2h-36.8c-1.8,0-3.2-1.4-3.2-3.2v-45.7c0-1.8,1.4-3.2,3.2-3.2h36.6
		c1.8,0,3.2,1.4,3.2,3.2V650H150.9z"/>
	<g>
		<g>
			<circle fill="#A36C63" cx="153.6" cy="527" r="2.6"/>
			<circle fill="#A36C63" cx="154.8" cy="532.8" r="2.6"/>
			<circle fill="#A36C63" cx="156.2" cy="539.7" r="2.6"/>
			<circle fill="#A36C63" cx="156.2" cy="545.7" r="2.6"/>
			<circle fill="#A36C63" cx="114.3" cy="547.7" r="2.6"/>
			<circle fill="#A36C63" cx="86.5" cy="547.3" r="2.6"/>
			<circle fill="#A36C63" cx="81.7" cy="550.9" r="2.6"/>
			<circle fill="#A36C63" cx="78.1" cy="556.4" r="2.6"/>
			<circle fill="#A36C63" cx="76.5" cy="562.8" r="2.6"/>
			<circle fill="#A36C63" cx="78.7" cy="569.7" r="2.6"/>
			<circle fill="#A36C63" cx="81.7" cy="575.7" r="2.6"/>
			<circle fill="#A36C63" cx="85.5" cy="581.8" r="2.6"/>
			<circle fill="#A36C63" cx="110.5" cy="602.3" r="2.6"/>
			<circle fill="#A36C63" cx="111.1" cy="608.5" r="2.6"/>
			<circle fill="#A36C63" cx="115.5" cy="612.6" r="2.6"/>
			<circle fill="#A36C63" cx="77.5" cy="546.3" r="2.6"/>
			<circle fill="#A36C63" cx="71.6" cy="542.5" r="2.6"/>
			<circle fill="#A36C63" cx="69.4" cy="536" r="2.6"/>
			<circle fill="#A36C63" cx="71.6" cy="530.4" r="2.6"/>
			<circle fill="#A36C63" cx="77.5" cy="527.2" r="2.6"/>
			<circle fill="#A36C63" cx="108.9" cy="552.2" r="2.6"/>
			<circle fill="#A36C63" cx="110.3" cy="559" r="2.6"/>
			<circle fill="#A36C63" cx="160.2" cy="533.8" r="2.6"/>
			<circle fill="#A36C63" cx="160.6" cy="527.4" r="2.6"/>
			<circle fill="#A36C63" cx="160.6" cy="521.1" r="2.6"/>
			<circle fill="#A36C63" cx="163" cy="514.7" r="2.6"/>
			<circle fill="#A36C63" cx="166" cy="508.7" r="2.6"/>
			<circle fill="#A36C63" cx="169.9" cy="503.8" r="2.6"/>
			<circle fill="#A36C63" cx="167.3" cy="494" r="2.6"/>
			<circle fill="#A36C63" cx="171.9" cy="489.5" r="2.6"/>
			<circle fill="#A36C63" cx="170.3" cy="483.9" r="2.6"/>
			<circle fill="#A36C63" cx="164.2" cy="481.1" r="2.6"/>
			<circle fill="#A36C63" cx="152.2" cy="487.1" r="2.6"/>
			<circle fill="#A36C63" cx="158" cy="483.1" r="2.6"/>
			<circle fill="#A36C63" cx="149.3" cy="494" r="2.6"/>
			<circle fill="#A36C63" cx="148.5" cy="500.8" r="2.6"/>
			<circle fill="#A36C63" cx="148.9" cy="507.3" r="2.6"/>
			<circle fill="#A36C63" cx="149.9" cy="513.7" r="2.6"/>
			<circle fill="#A36C63" cx="151.1" cy="520.1" r="2.6"/>
			<circle fill="#A36C63" cx="174.5" cy="499.4" r="2.6"/>
			<circle fill="#A36C63" cx="179.9" cy="495.8" r="2.6"/>
			<circle fill="#A36C63" cx="186" cy="493.8" r="2.6"/>
			<circle fill="#A36C63" cx="191.8" cy="492.4" r="2.6"/>
			<circle fill="#A36C63" cx="198.3" cy="493" r="2.6"/>
			<circle fill="#A36C63" cx="203.5" cy="495.8" r="2.6"/>
			<circle fill="#A36C63" cx="205.7" cy="501.4" r="2.6"/>
			<circle fill="#A36C63" cx="202.7" cy="507.3" r="2.6"/>
			<circle fill="#A36C63" cx="196.9" cy="506" r="2.6"/>
		</g>
	</g>
	<g>
		<g>
			<g>
				<path fill="#98B259" d="M154,572.3c-10.7,1-24.4,10.3-24.2,14.7c0.2,3.8,7.2,12.9,14.5,12.9C152.2,598.3,152.4,588.2,154,572.3z
					"/>
			</g>
			<g>
				<path fill="#98B259" d="M122.4,636.5c-6.8-14.1,20.7-26,24.2-33.4C144.7,621.2,132.4,645.2,122.4,636.5z"/>
			</g>
			<g>
				<path fill="#98B259" d="M106.5,613.4c-17.5,7.7-17.7,27.2-29.6,17.5c-8.7-15.9,22.3-18.7,28.2-25.4
					C103,609.1,105.8,613,106.5,613.4z"/>
			</g>
			<g>
				<path fill="#98B259" d="M85.5,587.2c-7.7,1-18.7-17.3-27.8-11.3C52.5,581.3,67.6,591.4,85.5,587.2z"/>
			</g>
			<g>
				<path fill="#98B259" d="M150.5,566.2c-5.2-1.2-22.8-20.3-32.8-16.1c-7.4,3.6-4.2,9.9-2.6,11.5c1.6,1.6,5.4,5.8,22.8,4.2
					C144.3,565.4,146.7,566,150.5,566.2z"/>
			</g>
			<g>
				<path fill="#98B259" d="M94.4,545.1c5.8,0.6,9.5-4.6,28.8-0.4c8.9,2.2,20.3,14.3,22.8,15.3c-0.4-1.4-15.3-18.3-23-20.9
					C109.1,534.4,97.4,544.7,94.4,545.1z"/>
			</g>
			<g>
				<path fill="#98B259" d="M128.8,526.4c-3.6-2.6-11.3-17.7-4.2-27.8c3.4-3.2,8.7-1.4,8.5,3.4C132.8,509.3,125,516.3,128.8,526.4"
					/>
			</g>
		</g>
	</g>
	<g>
		<g>
			<g>
				<path fill="#4E8048" d="M127.2,615.6c-2,0.6-8.9,1.2-12.9,1.2c-28,1-14.1,32.4,1.2,19.3c0,0,1.8-2,3-8.1
					C119.5,625,124.6,617.4,127.2,615.6z"/>
			</g>
			<g>
				<path fill="#4E8048" d="M124.6,584.4c-4.8,4.8-17.1,14.7-19.5,16.7c-5.6,5.2-32,17.3-30.8-2.4c0,0,1.2-8.1,14.5-9.9
					C94.6,587.8,107.5,590.6,124.6,584.4z"/>
			</g>
			<g>
				<path fill="#4E8048" d="M86.5,575.3c-15.3-20.9,11.5-29.6,20.3-29c-6.8,4.6-3.8,12.3,2.6,17.3c-16.7-1.2-17.1,17.1-9.3,20.1
					c-0.8,0.4-3.6,1.8-9.5,1C91.4,580.1,86.5,575.3,86.5,575.3z"/>
			</g>
			<g>
				<path fill="#4E8048" d="M119.9,524.2c-9.5-3.4-14.3,0-22.8-4.2s-13.5-9.5-11.3-15.5c2.2-6,10.9-5.6,19.7,4.4
					C114.9,519.1,116.7,521.3,119.9,524.2z"/>
			</g>
		</g>
	</g>
	<g>
		<g>
			<g>
				<path fill="#C9C367" d="M99,527.8c15.3-3,27.4,1.6,31.6,4.6c10.3,6.6,18.3,28.6,18.7,26.8c-2-0.6-10.9-12.7-17.3-17.9
					C132.2,541.5,124.8,533.8,99,527.8z"/>
			</g>
			<g>
				<path fill="#C9C367" d="M156.2,569.7c-4.8-15.3,6.8-30.8,12.1-20.5C170.1,554.8,157.8,562.8,156.2,569.7z"/>
			</g>
			<g>
				<path fill="#C9C367" d="M157.6,574.1c-0.6,6.6,9.5,12.9,11.9,8.3C170.9,577.7,159.6,577.5,157.6,574.1z"/>
			</g>
			<g>
				<path fill="#C9C367" d="M126.2,588.8c-18.9,4.4-13.5,38.9,15.5,14.7C139.5,601.9,131.6,601.5,126.2,588.8z"/>
			</g>
			<g>
				<path fill="#C9C367" d="M149.9,569.5c-32,5-47.1-11.9-51.3,5c0,0-0.6,9.5,10.5,9.9C124,583.2,139.5,572.3,149.9,569.5z"/>
			</g>
			<g>
				<path fill="#C9C367" d="M96.6,524c-8.5,0.2-40.1,0-41.9-12.9c0.6-7.4,7.4-5.2,8.5-5.2C71.2,507.1,89.1,523.2,96.6,524z"/>
			</g>
			<g>
				<path fill="#C9C367" d="M112.7,535.2c-0.6,0-26.6-11.9-36.6-1.8c-4.4,4.4,2.2,10.3,8.7,9.7C91.4,543.1,98.4,539.3,112.7,535.2z"
					/>
			</g>
		</g>
	</g>
</g>
<g>
	<path fill="#B83E1F" d="M415.5,655.2c0,1.8-1.4,3.2-3.2,3.2h-48.7c-1.8,0-3.2-1.4-3.2-3.2v-63c0-1.8,1.4-3.2,3.2-3.2h48.7
		c1.8,0,3.2,1.4,3.2,3.2V655.2z"/>
	<path fill="#86BA21" d="M426,581.6c0,1.8-1.4,3.2-3.2,3.2h-41.9c-1.8,0-3.2-1.4-3.2-3.2v-44.7c0-1.8,1.4-3.2,3.2-3.2h41.9
		c1.8,0,3.2,1.4,3.2,3.2V581.6z"/>
	<path fill="#6E1B46" d="M353.3,650c0,1.8-1.4,3.2-3.2,3.2h-36.6c-1.8,0-3.2-1.4-3.2-3.2v-45.7c0-1.8,1.4-3.2,3.2-3.2h36.6
		c1.8,0,3.2,1.4,3.2,3.2V650z"/>
	<g>
		<g>
			<circle fill="#EFB619" cx="355.9" cy="527" r="2.6"/>
			<circle fill="#EFB619" cx="357.3" cy="532.8" r="2.6"/>
			<circle fill="#EFB619" cx="358.5" cy="539.7" r="2.6"/>
			<circle fill="#EFB619" cx="358.5" cy="545.7" r="2.6"/>
			<circle fill="#EFB619" cx="316.6" cy="547.7" r="2.6"/>
			<circle fill="#EFB619" cx="288.9" cy="547.3" r="2.6"/>
			<circle fill="#EFB619" cx="284" cy="550.9" r="2.6"/>
			<circle fill="#EFB619" cx="280.6" cy="556.4" r="2.6"/>
			<circle fill="#EFB619" cx="279" cy="562.8" r="2.6"/>
			<circle fill="#EFB619" cx="281" cy="569.7" r="2.6"/>
			<circle fill="#EFB619" cx="284" cy="575.7" r="2.6"/>
			<circle fill="#EFB619" cx="287.9" cy="581.8" r="2.6"/>
			<circle fill="#EFB619" cx="312.8" cy="602.3" r="2.6"/>
			<circle fill="#EFB619" cx="313.4" cy="608.5" r="2.6"/>
			<circle fill="#EFB619" cx="318.1" cy="612.6" r="2.6"/>
			<circle fill="#EFB619" cx="279.8" cy="546.3" r="2.6"/>
			<circle fill="#EFB619" cx="274.2" cy="542.5" r="2.6"/>
			<circle fill="#EFB619" cx="271.9" cy="536" r="2.6"/>
			<circle fill="#EFB619" cx="274.2" cy="530.4" r="2.6"/>
			<circle fill="#EFB619" cx="279.8" cy="527.2" r="2.6"/>
			<circle fill="#EFB619" cx="311.2" cy="552.2" r="2.6"/>
			<circle fill="#EFB619" cx="312.6" cy="559" r="2.6"/>
			<circle fill="#EFB619" cx="362.8" cy="533.8" r="2.6"/>
			<circle fill="#EFB619" cx="363" cy="527.4" r="2.6"/>
			<circle fill="#EFB619" cx="363" cy="521.1" r="2.6"/>
			<circle fill="#EFB619" cx="365.4" cy="514.7" r="2.6"/>
			<circle fill="#EFB619" cx="368.4" cy="508.7" r="2.6"/>
			<circle fill="#EFB619" cx="372.4" cy="503.8" r="2.6"/>
			<circle fill="#EFB619" cx="369.6" cy="494" r="2.6"/>
			<circle fill="#EFB619" cx="374.2" cy="489.5" r="2.6"/>
			<circle fill="#EFB619" cx="372.6" cy="483.9" r="2.6"/>
			<circle fill="#EFB619" cx="366.6" cy="481.1" r="2.6"/>
			<circle fill="#EFB619" cx="354.5" cy="487.1" r="2.6"/>
			<circle fill="#EFB619" cx="360.3" cy="483.1" r="2.6"/>
			<circle fill="#EFB619" cx="351.9" cy="494" r="2.6"/>
			<circle fill="#EFB619" cx="350.9" cy="500.8" r="2.6"/>
			<circle fill="#EFB619" cx="351.5" cy="507.3" r="2.6"/>
			<circle fill="#EFB619" cx="352.3" cy="513.7" r="2.6"/>
			<circle fill="#EFB619" cx="353.7" cy="520.1" r="2.6"/>
			<circle fill="#EFB619" cx="376.8" cy="499.4" r="2.6"/>
			<circle fill="#EFB619" cx="382.3" cy="495.8" r="2.6"/>
			<circle fill="#EFB619" cx="388.3" cy="493.8" r="2.6"/>
			<circle fill="#EFB619" cx="394.4" cy="492.4" r="2.6"/>
			<circle fill="#EFB619" cx="400.6" cy="493" r="2.6"/>
			<circle fill="#EFB619" cx="405.8" cy="495.8" r="2.6"/>
			<circle fill="#EFB619" cx="408.1" cy="501.4" r="2.6"/>
			<circle fill="#EFB619" cx="405" cy="507.3" r="2.6"/>
			<circle fill="#EFB619" cx="399.2" cy="506" r="2.6"/>
		</g>
	</g>
	<g>
		<g>
			<g>
				<path fill="#D98012" d="M356.3,572.3c-10.7,1-24.4,10.3-24.2,14.7c0.2,3.8,7.2,12.9,14.5,12.9
					C354.7,598.3,354.7,588.2,356.3,572.3z"/>
			</g>
			<g>
				<path fill="#D98012" d="M324.9,636.5c-6.8-14.1,20.7-26,24.2-33.4C347.3,621.2,335,645.2,324.9,636.5z"/>
			</g>
			<g>
				<path fill="#D98012" d="M309,613.4c-17.5,7.7-17.7,27.2-29.6,17.5c-8.7-15.9,22.3-18.7,28.2-25.4
					C305.6,609.1,308.2,613,309,613.4z"/>
			</g>
			<g>
				<path fill="#D98012" d="M287.9,587.2c-7.7,1-18.7-17.3-27.8-11.3C255,581.3,270.1,591.4,287.9,587.2z"/>
			</g>
			<g>
				<path fill="#D98012" d="M352.9,566.2c-5.2-1.2-22.8-20.3-32.8-16.1c-7.4,3.6-4.2,9.9-2.6,11.5c1.6,1.6,5.4,5.8,22.8,4.2
					C346.6,565.4,349.3,566,352.9,566.2z"/>
			</g>
			<g>
				<path fill="#D98012" d="M296.7,545.1c5.8,0.6,9.5-4.6,28.8-0.4c8.9,2.2,20.3,14.3,22.8,15.3c-0.4-1.4-15.3-18.3-23-20.9
					C311.4,534.4,299.9,544.7,296.7,545.1z"/>
			</g>
			<g>
				<path fill="#D98012" d="M331.1,526.4c-3.6-2.6-11.3-17.7-4.2-27.8c3.4-3.2,8.7-1.4,8.5,3.4C335.2,509.3,327.5,516.3,331.1,526.4
					"/>
			</g>
		</g>
	</g>
	<g>
		<g>
			<g>
				<path fill="#B83E1F" d="M329.5,615.6c-2,0.6-8.9,1.2-12.9,1.2c-28,1-14.1,32.4,1.2,19.3c0,0,1.8-2,3-8.1
					C321.9,625,326.9,617.4,329.5,615.6z"/>
			</g>
			<g>
				<path fill="#B83E1F" d="M327.1,584.4c-4.8,4.8-17.1,14.7-19.5,16.7c-5.6,5.2-32,17.3-30.8-2.4c0,0,1.2-8.1,14.5-9.9
					C297.1,587.8,309.8,590.6,327.1,584.4z"/>
			</g>
			<g>
				<path fill="#B83E1F" d="M288.9,575.3c-15.3-20.9,11.5-29.6,20.3-29c-6.8,4.6-3.8,12.3,2.6,17.3c-16.7-1.2-17.1,17.1-9.3,20.1
					c-0.8,0.4-3.6,1.8-9.5,1C293.7,580.1,288.9,575.3,288.9,575.3z"/>
			</g>
			<g>
				<path fill="#B83E1F" d="M322.5,524.2c-9.5-3.4-14.3,0-22.8-4.2s-13.5-9.5-11.3-15.5c2.2-6,10.9-5.6,19.7,4.4
					C317.3,519.1,319.1,521.3,322.5,524.2z"/>
			</g>
		</g>
	</g>
	<g>
		<g>
			<g>
				<path fill="#86BA21" d="M301.3,527.8c15.3-3,27.4,1.6,31.6,4.6c10.3,6.6,18.3,28.6,18.7,26.8c-2-0.6-10.9-12.7-17.3-17.9
					C334.6,541.5,327.3,533.8,301.3,527.8z"/>
			</g>
			<path fill="#D98012" d="M358.5,569.7c-4.8-15.3,6.8-30.8,12.1-20.5C372.4,554.8,360.1,562.8,358.5,569.7z"/>
			<path fill="#D98012" d="M359.9,574.1c-0.6,6.6,9.5,12.9,11.9,8.3C373.4,577.7,361.9,577.5,359.9,574.1z"/>
			<g>
				<path fill="#86BA21" d="M328.7,588.8c-18.9,4.4-13.5,38.9,15.5,14.7C341.8,601.9,334,601.5,328.7,588.8z"/>
			</g>
			<g>
				<path fill="#86BA21" d="M352.3,569.5c-32,5-47.1-11.9-51.3,5c0,0-0.6,9.5,10.5,9.9C326.3,583.2,342,572.3,352.3,569.5z"/>
			</g>
			<g>
				<path fill="#86BA21" d="M298.9,524c-8.5,0.2-40.1,0-41.9-12.9c0.6-7.4,7.4-5.2,8.5-5.2C273.6,507.1,291.7,523.2,298.9,524z"/>
			</g>
			<g>
				<path fill="#86BA21" d="M315,535.2c-0.6,0-26.6-11.9-36.6-1.8c-4.4,4.4,2.2,10.3,8.7,9.7C293.7,543.1,300.7,539.3,315,535.2z"/>
			</g>
		</g>
	</g>
</g>
<g>
	<g>
		<path fill="#009AE3" d="M414.9,1132.2c0,1.8-1.4,3.2-3.2,3.2h-48.5c-1.8,0-3.2-1.4-3.2-3.2v-62.8c0-1.8,1.4-3.2,3.2-3.2h48.5
			c1.8,0,3.2,1.4,3.2,3.2V1132.2z"/>
		<path fill="#009AE3" d="M421.9,1062.7h-41.7c-2.2,0-3.8-1.8-3.8-3.8v-44.5c0-2.2,1.8-3.8,3.8-3.8h41.7c2.2,0,3.8,1.8,3.8,3.8v44.5
			C426,1060.9,424.2,1062.7,421.9,1062.7z M380.3,1011.6c-1.4,0-2.6,1.2-2.6,2.6v44.5c0,1.4,1.2,2.6,2.6,2.6h41.7
			c1.4,0,2.6-1.2,2.6-2.6v-44.5c0-1.4-1.2-2.6-2.6-2.6H380.3z"/>
		<path fill="#009AE3" d="M349.7,1131h-36.4c-2.2,0-3.8-1.8-3.8-3.8v-45.7c0-2.2,1.8-3.8,3.8-3.8h36.4c2.2,0,3.8,1.8,3.8,3.8v45.7
			C353.5,1129.2,351.7,1131,349.7,1131z M313,1078.6c-1.4,0-2.6,1.2-2.6,2.6v45.7c0,1.4,1.2,2.6,2.6,2.6h36.4c1.4,0,2.6-1.2,2.6-2.6
			v-45.7c0-1.4-1.2-2.6-2.6-2.6H313z"/>
		<g>
			<g>
				<path fill="#009AE3" d="M355.5,1007.8c-1.8,0-3.2-1.4-3.2-3.2c0-1.8,1.4-3.2,3.2-3.2c1.8,0,3.2,1.4,3.2,3.2
					S357.3,1007.8,355.5,1007.8z M355.5,1002.3c-1.2,0-2,1-2,2.2s1,2.2,2,2.2c1.2,0,2.2-1,2.2-2.2S356.7,1002.3,355.5,1002.3z"/>
				<path fill="#009AE3" d="M356.9,1013.6c-1.8,0-3.2-1.4-3.2-3.2c0-1.8,1.4-3.2,3.2-3.2c1.8,0,3.2,1.4,3.2,3.2
					C360.1,1012,358.7,1013.6,356.9,1013.6z M356.9,1008.2c-1.2,0-2.2,1-2.2,2.2s1,2.2,2.2,2.2s2-1,2-2.2S358.1,1008.2,356.9,1008.2
					z"/>
				<path fill="#009AE3" d="M358.1,1020.3c-1.8,0-3.2-1.4-3.2-3.2c0-1.8,1.4-3.2,3.2-3.2c1.8,0,3.2,1.4,3.2,3.2
					C361.5,1018.8,359.9,1020.3,358.1,1020.3z M358.1,1015c-1.2,0-2.2,1-2.2,2.2s1,2.2,2.2,2.2s2-1,2-2.2S359.3,1015,358.1,1015z"/>
				<path fill="#009AE3" d="M358.1,1026.3c-1.8,0-3.2-1.4-3.2-3.2c0-1.8,1.4-3.2,3.2-3.2c1.8,0,3.2,1.4,3.2,3.2
					C361.5,1024.9,359.9,1026.3,358.1,1026.3z M358.1,1020.9c-1.2,0-2.2,1-2.2,2.2c0,1.2,1,2.2,2.2,2.2s2-1,2-2.2
					C360.1,1021.9,359.3,1020.9,358.1,1020.9z"/>
				<path fill="#009AE3" d="M316.4,1028.5c-1.8,0-3.2-1.4-3.2-3.2c0-1.8,1.4-3.2,3.2-3.2c1.8,0,3.2,1.4,3.2,3.2
					C319.7,1026.9,318.3,1028.5,316.4,1028.5z M316.4,1023.1c-1.2,0-2.2,1-2.2,2.2s1,2.2,2.2,2.2c1.2,0,2-1,2-2.2
					S317.7,1023.1,316.4,1023.1z"/>
				<path fill="#009AE3" d="M288.7,1027.9c-1.8,0-3.2-1.4-3.2-3.2c0-1.8,1.4-3.2,3.2-3.2c1.8,0,3.2,1.4,3.2,3.2
					C292.1,1026.5,290.5,1027.9,288.7,1027.9z M288.7,1022.7c-1.2,0-2.2,1-2.2,2.2c0,1.2,1,2.2,2.2,2.2c1.2,0,2-1,2-2.2
					C290.7,1023.7,289.9,1022.7,288.7,1022.7z"/>
				<path fill="#009AE3" d="M283.8,1031.5c-1.8,0-3.2-1.4-3.2-3.2c0-1.8,1.4-3.2,3.2-3.2c1.8,0,3.2,1.4,3.2,3.2
					C287.3,1030.1,285.6,1031.5,283.8,1031.5z M283.8,1026.3c-1.2,0-2.2,1-2.2,2.2c0,1.2,1,2.2,2.2,2.2c1.2,0,2-1,2-2.2
					C285.8,1027.3,285,1026.3,283.8,1026.3z"/>
				<path fill="#009AE3" d="M280.4,1037c-1.8,0-3.2-1.4-3.2-3.2c0-1.8,1.4-3.2,3.2-3.2c1.8,0,3.2,1.4,3.2,3.2S282.2,1037,280.4,1037
					z M280.4,1031.5c-1.2,0-2.2,1-2.2,2.2s1,2.2,2.2,2.2c1.2,0,2-1,2-2.2S281.6,1031.5,280.4,1031.5z"/>
				<path fill="#009AE3" d="M278.8,1043.4c-1.8,0-3.2-1.4-3.2-3.2c0-1.8,1.4-3.2,3.2-3.2c1.8,0,3.2,1.4,3.2,3.2
					S280.6,1043.4,278.8,1043.4z M278.8,1038c-1.2,0-2.2,1-2.2,2.2s1,2.2,2.2,2.2c1.2,0,2-1,2-2.2S280,1038,278.8,1038z"/>
				<path fill="#009AE3" d="M280.8,1050.1c-1.8,0-3.2-1.4-3.2-3.2c0-1.8,1.4-3.2,3.2-3.2c1.8,0,3.2,1.4,3.2,3.2
					S282.6,1050.1,280.8,1050.1z M280.8,1044.8c-1.2,0-2.2,1-2.2,2.2s1,2.2,2.2,2.2c1.2,0,2-1,2-2.2S282,1044.8,280.8,1044.8z"/>
				<path fill="#009AE3" d="M283.8,1056.1c-1.8,0-3.2-1.4-3.2-3.2c0-1.8,1.4-3.2,3.2-3.2c1.8,0,3.2,1.4,3.2,3.2
					C287.3,1054.7,285.6,1056.1,283.8,1056.1z M283.8,1050.7c-1.2,0-2.2,1-2.2,2c0,1.2,1,2.2,2.2,2.2c1.2,0,2-1,2-2.2
					C286,1051.7,285,1050.7,283.8,1050.7z"/>
				<path fill="#009AE3" d="M287.7,1062.1c-1.8,0-3.2-1.4-3.2-3.2c0-1.8,1.4-3.2,3.2-3.2c1.8,0,3.2,1.4,3.2,3.2
					C291.1,1060.7,289.5,1062.1,287.7,1062.1z M287.7,1056.9c-1.2,0-2.2,1-2.2,2.2s1,2,2.2,2c1.2,0,2-1,2-2
					C289.9,1057.7,288.9,1056.9,287.7,1056.9z"/>
				<path fill="#009AE3" d="M313.2,1088.9c-1.8,0-3.2-1.4-3.2-3.2c0-1.8,1.4-3.2,3.2-3.2s3.2,1.4,3.2,3.2
					C316.4,1087.5,315,1088.9,313.2,1088.9z M313.2,1083.5c-1.2,0-2.2,1-2.2,2.2s1,2,2.2,2c1.2,0,2-1,2-2
					C315.2,1084.5,314.4,1083.5,313.2,1083.5z"/>
				<path fill="#009AE3" d="M317.7,1092.9c-1.8,0-3.2-1.4-3.2-3.2s1.4-3.2,3.2-3.2s3.2,1.4,3.2,3.2
					C321.1,1091.5,319.5,1092.9,317.7,1092.9z M317.7,1087.5c-1.2,0-2.2,1-2.2,2.2c0,1.2,1,2,2.2,2c1.2,0,2.2-1,2.2-2
					C319.9,1088.5,318.9,1087.5,317.7,1087.5z"/>
				<path fill="#009AE3" d="M279.6,1026.9c-1.8,0-3.2-1.4-3.2-3.2c0-1.8,1.4-3.2,3.2-3.2c1.8,0,3.2,1.4,3.2,3.2
					C283,1025.5,281.4,1026.9,279.6,1026.9z M279.6,1021.7c-1.2,0-2.2,1-2.2,2.2c0,1.2,1,2.2,2.2,2.2c1.2,0,2-1,2-2.2
					C281.6,1022.7,280.8,1021.7,279.6,1021.7z"/>
				<path fill="#009AE3" d="M274,1023.1c-1.8,0-3.2-1.4-3.2-3.2c0-1.8,1.4-3.2,3.2-3.2c1.8,0,3.2,1.4,3.2,3.2
					C277.2,1021.5,275.8,1023.1,274,1023.1z M274,1017.6c-1.2,0-2.2,1-2.2,2.2s1,2.2,2.2,2.2c1.2,0,2-1,2-2.2
					S275.2,1017.6,274,1017.6z"/>
				<path fill="#009AE3" d="M271.7,1016.8c-1.8,0-3.2-1.4-3.2-3.2c0-1.8,1.4-3.2,3.2-3.2c1.8,0,3.2,1.4,3.2,3.2
					C275,1015.4,273.6,1016.8,271.7,1016.8z M271.7,1011.4c-1.2,0-2.2,1-2.2,2.2c0,1.2,1,2.2,2.2,2.2c1.2,0,2-1,2-2.2
					C273.8,1012.4,273,1011.4,271.7,1011.4z"/>
				<path fill="#009AE3" d="M274,1011c-1.8,0-3.2-1.4-3.2-3.2c0-1.8,1.4-3.2,3.2-3.2c1.8,0,3.2,1.4,3.2,3.2
					C277.2,1009.6,275.8,1011,274,1011z M274,1005.6c-1.2,0-2.2,1-2.2,2.2s1,2.2,2.2,2.2c1.2,0,2-1,2-2.2S275.2,1005.6,274,1005.6z"
					/>
				<path fill="#009AE3" d="M279.6,1008c-1.8,0-3.2-1.4-3.2-3.2c0-1.8,1.4-3.2,3.2-3.2c1.8,0,3.2,1.4,3.2,3.2
					C283,1006.4,281.4,1008,279.6,1008z M279.6,1002.5c-1.2,0-2.2,1-2.2,2.2s1,2.2,2.2,2.2c1.2,0,2-1,2-2.2
					S280.8,1002.5,279.6,1002.5z"/>
				<path fill="#009AE3" d="M311,1032.9c-1.8,0-3.2-1.4-3.2-3.2s1.4-3.2,3.2-3.2c1.8,0,3.2,1.4,3.2,3.2
					C314.2,1031.3,312.8,1032.9,311,1032.9z M311,1027.5c-1.2,0-2.2,1-2.2,2.2c0,1.2,1,2.2,2.2,2.2c1.2,0,2.2-1,2.2-2.2
					C313.2,1028.5,312.2,1027.5,311,1027.5z"/>
				<path fill="#009AE3" d="M312.4,1039.6c-1.8,0-3.2-1.4-3.2-3.2c0-1.8,1.4-3.2,3.2-3.2s3.2,1.4,3.2,3.2
					C315.6,1038,314.2,1039.6,312.4,1039.6z M312.4,1034.1c-1.2,0-2.2,1-2.2,2.2s1,2.2,2.2,2.2s2.2-1,2.2-2.2
					S313.4,1034.1,312.4,1034.1z"/>
				<path fill="#009AE3" d="M362.2,1014.4c-1.8,0-3.2-1.4-3.2-3.2s1.4-3.2,3.2-3.2c1.8,0,3.2,1.4,3.2,3.2S364,1014.4,362.2,1014.4z
					 M362.2,1009c-1.2,0-2,1-2,2.2s1,2.2,2,2.2c1.2,0,2.2-1,2.2-2.2S363.4,1009,362.2,1009z"/>
				<path fill="#009AE3" d="M362.6,1008.2c-1.8,0-3.2-1.4-3.2-3.2c0-1.8,1.4-3.2,3.2-3.2c1.8,0,3.2,1.4,3.2,3.2
					C366,1006.8,364.4,1008.2,362.6,1008.2z M362.6,1002.7c-1.2,0-2,1-2,2.2s1,2.2,2,2.2c1.2,0,2.2-1,2.2-2.2
					S363.8,1002.7,362.6,1002.7z"/>
				<path fill="#009AE3" d="M362.6,1001.7c-1.8,0-3.2-1.4-3.2-3.2c0-1.8,1.4-3.2,3.2-3.2c1.8,0,3.2,1.4,3.2,3.2
					C366,1000.3,364.4,1001.7,362.6,1001.7z M362.6,996.5c-1.2,0-2,1-2,2.2s1,2.2,2,2.2c1.2,0,2.2-1,2.2-2.2
					C364.8,997.3,363.8,996.5,362.6,996.5z"/>
				<path fill="#009AE3" d="M365,995.5c-1.8,0-3.2-1.4-3.2-3.2c0-1.8,1.4-3.2,3.2-3.2s3.2,1.4,3.2,3.2S366.8,995.5,365,995.5z
					 M365,990.1c-1.2,0-2,1-2,2.2s1,2.2,2,2.2c1.2,0,2.2-1,2.2-2.2S366.2,990.1,365,990.1z"/>
				<path fill="#009AE3" d="M368,989.5c-1.8,0-3.2-1.4-3.2-3.2c0-1.8,1.4-3.2,3.2-3.2c1.8,0,3.2,1.4,3.2,3.2
					C371.2,988,369.8,989.5,368,989.5z M368,984c-1.2,0-2,1-2,2.2s1,2.2,2,2.2c1.2,0,2.2-1,2.2-2.2S369.2,984,368,984z"/>
				<path fill="#009AE3" d="M371.8,984.6c-1.8,0-3.2-1.4-3.2-3.2c0-1.8,1.4-3.2,3.2-3.2c1.8,0,3.2,1.4,3.2,3.2
					C375.2,983.2,373.6,984.6,371.8,984.6z M371.8,979.4c-1.2,0-2,1-2,2.2s1,2.2,2,2.2c1.2,0,2.2-1,2.2-2.2S373,979.4,371.8,979.4z"
					/>
				<path fill="#009AE3" d="M369.2,974.8c-1.8,0-3.2-1.4-3.2-3.2c0-1.8,1.4-3.2,3.2-3.2c1.8,0,3.2,1.4,3.2,3.2
					C372.4,973.3,371,974.8,369.2,974.8z M369.2,969.3c-1.2,0-2,1-2,2.2s1,2.2,2,2.2c1.2,0,2.2-1,2.2-2.2S370.4,969.3,369.2,969.3z"
					/>
				<path fill="#009AE3" d="M373.8,970.3c-1.8,0-3.2-1.4-3.2-3.2c0-1.8,1.4-3.2,3.2-3.2c1.8,0,3.2,1.4,3.2,3.2
					C377.1,968.9,375.6,970.3,373.8,970.3z M373.8,965.1c-1.2,0-2,1-2,2.2s1,2.2,2,2.2c1.2,0,2.2-1,2.2-2.2S374.8,965.1,373.8,965.1
					z"/>
				<path fill="#009AE3" d="M372.2,964.7c-1.8,0-3.2-1.4-3.2-3.2c0-1.8,1.4-3.2,3.2-3.2c1.8,0,3.2,1.4,3.2,3.2
					C375.4,963.3,374,964.7,372.2,964.7z M372.2,959.2c-1.2,0-2,1-2,2.2s1,2.2,2,2.2c1.2,0,2.2-1,2.2-2.2S373.4,959.2,372.2,959.2z"
					/>
				<path fill="#009AE3" d="M366.2,962.1c-1.8,0-3.2-1.4-3.2-3.2c0-1.8,1.4-3.2,3.2-3.2c1.8,0,3.2,1.4,3.2,3.2
					C369.4,960.5,368,962.1,366.2,962.1z M366.2,956.6c-1.2,0-2,1-2,2.2s1,2.2,2,2.2c1.2,0,2.2-1,2.2-2.2S367.4,956.6,366.2,956.6z"
					/>
				<path fill="#009AE3" d="M354.1,968.1c-1.8,0-3.2-1.4-3.2-3.2c0-1.8,1.4-3.2,3.2-3.2c1.8,0,3.2,1.4,3.2,3.2
					C357.5,966.5,355.9,968.1,354.1,968.1z M354.1,962.7c-1.2,0-2,1-2,2.2s1,2.2,2,2.2c1.2,0,2.2-1,2.2-2.2S355.3,962.7,354.1,962.7
					z"/>
				<path fill="#009AE3" d="M359.9,963.9c-1.8,0-3.2-1.4-3.2-3.2c0-1.8,1.4-3.2,3.2-3.2c1.8,0,3.2,1.4,3.2,3.2
					C363.2,962.3,361.7,963.9,359.9,963.9z M359.9,958.4c-1.2,0-2,1-2,2.2s1,2.2,2,2.2c1.2,0,2.2-1,2.2-2.2S361.1,958.4,359.9,958.4
					z"/>
				<path fill="#009AE3" d="M351.5,974.8c-1.8,0-3.2-1.4-3.2-3.2c0-1.8,1.4-3.2,3.2-3.2c1.8,0,3.2,1.4,3.2,3.2
					C354.7,973.3,353.3,974.8,351.5,974.8z M351.5,969.3c-1.2,0-2,1-2,2.2s1,2.2,2,2.2c1.2,0,2.2-1,2.2-2.2S352.7,969.3,351.5,969.3
					z"/>
				<path fill="#009AE3" d="M350.5,981.4c-1.8,0-3.2-1.4-3.2-3.2c0-1.8,1.4-3.2,3.2-3.2s3.2,1.4,3.2,3.2
					C353.9,980,352.3,981.4,350.5,981.4z M350.5,976.2c-1.2,0-2,1-2,2.2s1,2.2,2,2.2c1.2,0,2.2-1,2.2-2.2S351.7,976.2,350.5,976.2z"
					/>
				<path fill="#009AE3" d="M351.1,988c-1.8,0-3.2-1.4-3.2-3.2c0-1.8,1.4-3.2,3.2-3.2s3.2,1.4,3.2,3.2
					C354.3,986.6,352.9,988,351.1,988z M351.1,982.6c-1.2,0-2,1-2,2.2c0,1.2,1,2.2,2,2.2c1.2,0,2.2-1,2.2-2.2
					C353.3,983.6,352.3,982.6,351.1,982.6z"/>
				<path fill="#009AE3" d="M351.9,994.3c-1.8,0-3.2-1.4-3.2-3.2c0-1.8,1.4-3.2,3.2-3.2c1.8,0,3.2,1.4,3.2,3.2
					C355.3,992.9,353.7,994.3,351.9,994.3z M351.9,989c-1.2,0-2,1-2,2.2s1,2.2,2,2.2c1.2,0,2.2-1,2.2-2.2S353.1,989,351.9,989z"/>
				<path fill="#009AE3" d="M353.3,1000.9c-1.8,0-3.2-1.4-3.2-3.2c0-1.8,1.4-3.2,3.2-3.2c1.8,0,3.2,1.4,3.2,3.2
					C356.5,999.5,355.1,1000.9,353.3,1000.9z M353.3,995.5c-1.2,0-2,1-2,2.2s1,2.2,2,2.2c1.2,0,2.2-1,2.2-2.2
					S354.3,995.5,353.3,995.5z"/>
				<path fill="#009AE3" d="M376.4,980.2c-1.8,0-3.2-1.4-3.2-3.2c0-1.8,1.4-3.2,3.2-3.2c1.8,0,3.2,1.4,3.2,3.2
					C379.7,978.6,378.3,980.2,376.4,980.2z M376.4,974.8c-1.2,0-2,1-2,2.2s1,2.2,2,2.2c1.2,0,2.2-1,2.2-2.2S377.7,974.8,376.4,974.8
					z"/>
				<path fill="#009AE3" d="M381.9,976.6c-1.8,0-3.2-1.4-3.2-3.2c0-1.8,1.4-3.2,3.2-3.2c1.8,0,3.2,1.4,3.2,3.2
					C385.1,975.2,383.7,976.6,381.9,976.6z M381.9,971.3c-1.2,0-2,1-2,2.2s1,2.2,2,2.2c1.2,0,2.2-1,2.2-2.2S383.1,971.3,381.9,971.3
					z"/>
				<path fill="#009AE3" d="M387.7,974.6c-1.8,0-3.2-1.4-3.2-3.2c0-1.8,1.4-3.2,3.2-3.2c1.8,0,3.2,1.4,3.2,3.2
					C391.1,973.1,389.5,974.6,387.7,974.6z M387.7,969.1c-1.2,0-2,1-2,2.2s1,2.2,2,2.2c1.2,0,2.2-1,2.2-2.2S388.9,969.1,387.7,969.1
					z"/>
				<path fill="#009AE3" d="M393.8,973.1c-1.8,0-3.2-1.4-3.2-3.2c0-1.8,1.4-3.2,3.2-3.2c1.8,0,3.2,1.4,3.2,3.2
					C397,971.5,395.6,973.1,393.8,973.1z M393.8,967.7c-1.2,0-2,1-2,2.2s1,2.2,2,2.2c1.2,0,2.2-1,2.2-2.2S395,967.7,393.8,967.7z"/>
				<path fill="#009AE3" d="M400,973.7c-1.8,0-3.2-1.4-3.2-3.2c0-1.8,1.4-3.2,3.2-3.2c1.8,0,3.2,1.4,3.2,3.2
					C403.4,972.3,401.8,973.7,400,973.7z M400,968.3c-1.2,0-2,1-2,2.2s1,2.2,2,2.2c1.2,0,2.2-1,2.2-2.2S401.2,968.3,400,968.3z"/>
				<path fill="#009AE3" d="M405.2,976.6c-1.8,0-3.2-1.4-3.2-3.2c0-1.8,1.4-3.2,3.2-3.2c1.8,0,3.2,1.4,3.2,3.2
					C408.7,975.2,407.1,976.6,405.2,976.6z M405.2,971.3c-1.2,0-2,1-2,2.2s1,2.2,2,2.2c1.2,0,2.2-1,2.2-2.2S406.4,971.3,405.2,971.3
					z"/>
				<path fill="#009AE3" d="M407.5,982.2c-1.8,0-3.2-1.4-3.2-3.2c0-1.8,1.4-3.2,3.2-3.2c1.8,0,3.2,1.4,3.2,3.2
					C410.9,980.8,409.3,982.2,407.5,982.2z M407.5,977c-1.2,0-2,1-2,2.2s1,2.2,2,2.2c1.2,0,2.2-1,2.2-2.2S408.7,977,407.5,977z"/>
				<path fill="#009AE3" d="M404.4,988c-1.8,0-3.2-1.4-3.2-3.2c0-1.8,1.4-3.2,3.2-3.2c1.8,0,3.2,1.4,3.2,3.2
					C407.9,986.6,406.2,988,404.4,988z M404.4,982.6c-1.2,0-2,1-2,2.2c0,1.2,1,2.2,2,2.2c1.2,0,2.2-1,2.2-2.2
					C406.6,983.6,405.6,982.6,404.4,982.6z"/>
				<path fill="#009AE3" d="M398.6,986.6c-1.8,0-3.2-1.4-3.2-3.2c0-1.8,1.4-3.2,3.2-3.2c1.8,0,3.2,1.4,3.2,3.2
					C401.8,985.2,400.4,986.6,398.6,986.6z M398.6,981.4c-1.2,0-2,1-2,2.2c0,1.2,1,2.2,2,2.2c1.2,0,2.2-1,2.2-2.2
					C400.8,982.4,399.8,981.4,398.6,981.4z"/>
			</g>
		</g>
		<path fill="#009AE3" d="M358.1,1046.8c-4.8-15.3,6.8-30.8,11.9-20.3C372,1031.9,359.7,1040.2,358.1,1046.8z"/>
		<path fill="#009AE3" d="M359.5,1051.3c-0.6,6.6,9.5,12.9,11.9,8.3C372.8,1054.9,361.5,1054.7,359.5,1051.3z"/>
		<path fill="#009AE3" d="M355.9,1049.7c-10.7,1-24.2,10.3-24.2,14.7c0.2,3.8,7.2,12.9,14.3,12.9
			C354.3,1075.4,354.3,1065.4,355.9,1049.7z"/>
		<path fill="#009AE3" d="M324.5,1113.7c-6.8-14.1,20.5-25.8,24.2-33.4C346.8,1098.2,334.6,1122.1,324.5,1113.7z"/>
		<path fill="#009AE3" d="M328.3,1066c-18.9,4.4-13.3,38.7,15.3,14.7C341.4,1079,333.6,1078.6,328.3,1066z"/>
		<path fill="#009AE3" d="M329.3,1092.5c-2,0.6-8.7,1.2-12.9,1.2c-27.8,1-14.1,32.2,1.2,19.3c0,0,1.8-2,3-8.1
			C321.7,1102.2,326.5,1094.6,329.3,1092.5z"/>
		<path fill="#009AE3" d="M308.8,1090.5c-17.3,7.7-17.5,27.2-29.4,17.3c-8.5-15.9,22.1-18.7,28.2-25.2
			C305.4,1086.3,308,1090.1,308.8,1090.5z"/>
		<path fill="#009AE3" d="M326.7,1061.7c-4.8,4.8-17.1,14.7-19.5,16.7c-5.6,5.2-31.8,17.3-30.8-2.4c0,0,1.2-8.1,14.3-9.9
			C296.9,1065,309.6,1067.8,326.7,1061.7z"/>
		<path fill="#009AE3" d="M287.7,1064.4c-7.7,1-18.7-17.3-27.8-11.1C254.8,1058.5,269.9,1068.6,287.7,1064.4z"/>
		<path fill="#009AE3" d="M288.7,1052.7c-15.3-20.7,11.3-29.4,20.3-29c-6.8,4.6-3.8,12.3,2.6,17.3c-16.7-1.2-17.1,17.1-9.3,20.1
			c-0.8,0.4-3.6,1.8-9.5,1C293.5,1057.3,288.7,1052.7,288.7,1052.7z"/>
		<path fill="#009AE3" d="M351.9,1046.6c-31.8,5-46.9-11.9-51.3,5c0,0-0.6,9.5,10.5,9.9C326.1,1060.3,341.6,1049.5,351.9,1046.6z"/>
		<path fill="#009AE3" d="M353.7,1043.4c-5.2-1.2-22.8-20.3-32.8-16.1c-7.4,3.6-4.2,9.9-2.6,11.5c1.6,1.6,5.4,5.8,22.6,4.2
			C347.5,1042.6,349.9,1043.4,353.7,1043.4z"/>
		<path fill="#009AE3" d="M296.5,1022.5c5.8,0.6,9.5-4.6,28.6-0.4c8.9,2.2,20.3,14.3,22.8,15.3c-0.4-1.4-15.3-18.3-23-20.7
			C311.2,1011.8,299.7,1022.1,296.5,1022.5z"/>
		<path fill="#009AE3" d="M301.1,1005.2c15.3-3,27.2,1.6,31.6,4.6c10.1,6.6,18.3,28.4,18.7,26.8c-2-0.6-10.9-12.7-17.3-17.7
			C334.2,1018.8,326.9,1011.4,301.1,1005.2z"/>
		<path fill="#009AE3" d="M330.9,1003.7c-3.6-2.6-11.1-17.7-4.2-27.6c3.4-3.2,8.7-1.2,8.5,3.4C334.8,986.8,327.1,993.7,330.9,1003.7
			"/>
		<path fill="#009AE3" d="M322.1,1001.7c-9.5-3.4-14.3,0-22.6-4.2S286,988,288.3,982c2.2-6,10.7-5.6,19.7,4.4
			C317.1,996.7,318.9,998.7,322.1,1001.7z"/>
		<path fill="#009AE3" d="M298.7,1001.3c-8.5,0.2-39.9,0-41.7-12.9c0.6-7.4,7.4-5.2,8.5-5.2C273.6,984.6,291.5,1000.5,298.7,1001.3z
			"/>
		<path fill="#009AE3" d="M314.8,1012.8c-0.6,0-26.6-11.9-36.4-1.8c-4.4,4.4,2.2,10.3,8.7,9.7
			C293.5,1020.5,300.5,1016.6,314.8,1012.8z"/>
	</g>
	<g>
		<path fill="#FFFFFF" d="M364.2,1070.6c1,0.2,2.4,0.4,4.2,0.4h4l1.6-1.8c1,0.6,1.8,1.2,2.6,1.8c0.2,0.2,0.4,0.2,0.4,0.4
			c0,0.4-0.2,0.6-0.4,0.6H371v8.9h1l1.6-1.6c0.8,0.6,1.6,1.2,2.2,1.8c0.2,0.2,0.2,0.2,0.2,0.4c0,0.4-0.2,0.6-0.4,0.6H371v9.7
			c0.4,0,0.6-0.2,1-0.4c1.4-0.6,3-1.2,4.8-2.2l0.2,0.8c-1.6,1-2.8,1.8-4,2.4s-2.4,1.2-3.4,1.8c-1,0.4-2.2,1-3.2,1.2
			c-0.2,0.8-0.4,1.4-0.6,1.4s-0.8-1-1.8-3c1.6-0.2,3-0.6,4.2-1c0.4,0,0.8-0.2,1.2-0.4v-10.3H369c-1.8,0-3,0-3.6,0.2l-0.8-1.6
			c1,0.2,2.6,0.4,4.4,0.4h0.4v-8.9h-0.8c-1.8,0-3,0-3.6,0.2L364.2,1070.6z M379.9,1085.7c1,0.2,2,0.4,2.8,0.6c0.2,0,0.4,0.2,0.4,0.4
			c0,0.2-0.2,0.2-0.6,0.4c-0.2,0.2-0.4,0.2-0.8,0.2v4.4c0,1-0.2,2-0.4,3c-0.4,1.2-0.8,2.2-1.4,3c-0.8,1-1.6,1.8-2.4,2.4
			c-0.8,0.8-2.4,1.6-4.4,2.6l-0.4-0.6c1.8-0.8,3-1.8,3.8-2.8c0.8-0.8,1.4-1.6,2-2.6c0.6-0.8,0.8-1.6,1-2.4c0.2-1,0.4-2.4,0.4-4.6
			C380.1,1087.9,380.1,1086.5,379.9,1085.7z M376.6,1072.8c1,0.2,2.4,0.4,4.2,0.4h3c0.4-0.8,0.8-1.4,1-2c0.4-1,0.6-2,0.8-3.4
			c1.2,0.4,2.4,0.8,3.2,1.4c0.2,0.2,0.2,0.2,0.2,0.4c0,0.2-0.2,0.4-0.8,0.4c-0.6,0.2-1,0.2-1.2,0.2c-0.4,1-1,2-1.4,3h7.9l1.8-2
			c1,0.8,1.8,1.4,2.6,2c0.2,0.2,0.2,0.4,0.2,0.4c0,0.4-0.2,0.6-0.6,0.6h-12.7c0,0.2-0.2,0.4-0.2,0.6c-0.8,1.4-1.8,2.6-2.6,3.8
			c-0.8,1-1.8,1.8-2.8,2.8c1.4,0,2.6-0.2,3.8-0.2c1.4,0,3.2-0.2,5-0.4c1.4-0.2,3.2-0.2,5-0.4c-0.2-0.2-0.4-0.4-0.4-0.6
			c-0.6-0.8-1.6-1.6-2.8-2.6l0.4-0.6c1.2,0.6,2.2,1.2,3,2c0.8,0.6,1.6,1.2,2,1.6s0.8,0.8,1.2,1c0.2,0.2,0.4,0.6,0.4,0.8
			c0.2,0.2,0.2,0.4,0.2,0.8c0,0.8-0.4,1.2-0.8,1.2c-0.2,0-0.4,0-0.6-0.2s-0.6-0.6-1-1.6c-0.2-0.4-0.6-0.8-0.8-1.2
			c-1.8,0.4-3.2,0.6-4.6,0.8c-1.6,0.2-3.2,0.4-4.6,0.6s-2.8,0.4-4.2,0.6c-0.2,0.8-0.4,1.2-0.6,1.2s-0.8-1-1.8-3h0.4
			c1.2-1.2,2.2-2.4,2.8-3.6c0.6-1,1.4-2,2-3.4c0-0.2,0.2-0.2,0.2-0.4h-2.6c-1.8,0-3,0-3.6,0.2L376.6,1072.8z M385.5,1085.7
			c1.2,0.2,2.2,0.4,3,0.8c0.2,0.2,0.4,0.4,0.4,0.6s-0.2,0.4-0.4,0.4c-0.4,0.2-0.8,0.4-1.2,0.4v12.7c0,0.4-0.4,0.8-1,0.8
			s-1-0.2-1-0.8c0-0.2,0-0.6,0-1.2s0-1,0-1.4v-9.3C385.5,1087.5,385.5,1086.5,385.5,1085.7z M391.3,1085.7c1.2,0.2,2,0.4,2.8,0.8
			c0.2,0,0.2,0.2,0.2,0.4s-0.2,0.4-0.4,0.4c-0.2,0.2-0.6,0.2-1,0.4v9.7c0,0.8,0,1.2,0,1.6c0,0.2,0.2,0.4,0.4,0.6
			c0.2,0.2,0.4,0.2,0.8,0.4c0.4,0.2,0.8,0.2,1.4,0.2c0.4,0,1,0,1.4-0.2c0.4,0,0.6-0.2,1-0.4c0.2-0.2,0.4-0.2,0.6-0.2
			c0.4,0,0.6,0,1,0.2c0.2,0.2,0.4,0.4,0.4,1c0,0.2,0,0.2,0,0.2c0,0.2-0.2,0.2-0.2,0.2c-0.4,0.2-0.8,0.2-1.2,0.2
			c-0.8,0.2-1.6,0.2-2.4,0.2c-1,0-1.8,0-2.6-0.2c-0.4,0-0.8-0.2-1-0.2c-0.4-0.2-0.6-0.4-0.8-0.6c-0.2-0.4-0.4-0.6-0.4-1
			s-0.2-0.8-0.2-1.6v-12.1H391.3z"/>
	</g>
	<g>
		<path fill="#FFFFFF" d="M376,1100c1,0.2,2.4,0.4,4.2,0.4h4l1.6-1.8c0.8,0.6,1.8,1.2,2.4,1.8c0.2,0.2,0.4,0.2,0.4,0.4
			c0,0.4-0.2,0.6-0.4,0.6h-5.2v8.9h1.6l1.6-1.6c0.8,0.6,1.6,1.2,2.2,1.8c0.2,0,0.2,0.2,0.2,0.4c0,0.4-0.2,0.6-0.4,0.6h-5.2v9.7h0.2
			c1.2-0.4,2.6-1,4.4-1.8l0.2,0.8c-1.2,0.8-2.4,1.4-3.4,2s-2.2,1-3.2,1.4s-2,0.8-3,1c-0.2,0.8-0.4,1.4-0.6,1.4s-0.8-1-1.8-3
			c1.4-0.2,2.8-0.4,3.8-0.8c0.4-0.2,1-0.2,1.6-0.4v-10.3h-0.4c-1.8,0-3,0-3.6,0.2l-0.8-1.6c1,0.2,2.6,0.4,4.4,0.4h0.4v-8.9h-1
			c-1.8,0-3,0-3.6,0.2L376,1100z M391.5,1103c1.2,0.2,2.2,0.4,2.8,0.6c0.2,0,0.4,0.2,0.4,0.4c0,0.2,0,0.2-0.2,0.2
			c-0.2,0.2-0.6,0.4-1,0.4v5.6c0,0.6,0,1,0,1.2c0,0.4,0,0.8,0,1.2h12.7l0,0c0-0.6,0-1,0-1.4v-5.4c0-1.2,0-2.2-0.2-2.6
			c1.2,0.2,2.2,0.4,2.8,0.6c0.2,0,0.4,0.2,0.4,0.4c0,0.2-0.2,0.2-0.4,0.2c-0.4,0.2-0.6,0.4-1,0.4v6.2c0,0.6,0,1,0,1.2
			c0,0.4,0,0.8,0,1c0,0.8-0.4,1.2-1.2,1.2c-0.6,0-0.8-0.2-0.8-0.6v-0.2h-5.2c-0.2,1.2-0.6,2.4-1,3.4h7.7l1-1.2c1.4,0.8,2,1.4,2,1.8
			c0,0.2-0.4,0.6-1,0.8v10.3c0,0.4-0.2,0.8-0.6,1.2c-0.2,0.4-0.6,0.6-1.2,1c-0.6,0.2-1.2,0.4-1.8,0.6c0-0.6-0.2-1.2-0.4-1.4
			c-0.2-0.2-0.4-0.4-0.8-0.4c-0.8-0.4-1.6-0.6-2.6-0.8v-0.8c1.4,0.4,2.8,0.8,3.8,0.8c0.8,0,1.2,0,1.4-0.2c0.2-0.2,0.4-0.4,0.4-0.8
			v-9.7h-8.1c0,0.4-0.2,0.6-0.2,0.8c-0.4,1.4-1,3-1.6,4.4c0.6,0,1.4-0.2,2.2-0.2c1,0,2.2-0.2,3.4-0.4c-0.2-0.4-0.4-0.8-0.6-1
			c-0.4-0.6-0.6-1.2-1-1.6l0.4-0.4c0.6,0.6,1.4,1.2,2,2c0.4,0.6,0.8,1,1,1.4s0.4,0.6,0.4,1c0,0.2,0,0.4,0,0.6c0,0.6-0.2,1-0.8,1
			h-0.2c-0.2-0.2-0.2-0.4-0.4-0.8c-0.2-0.6-0.4-1.2-0.6-1.6c-1,0.2-2,0.6-2.8,0.8c-1,0.2-2,0.4-2.8,0.6s-1.6,0.4-2.6,0.4
			c-0.2,0.8-0.6,1.4-0.6,1.4c-0.2,0-0.8-1-1.8-3c1.4,0,2.6-0.2,3.6-0.2h0.2c0.4-1.8,0.8-3.4,1-5c0-0.2,0-0.2,0-0.4h-6.2v12.7
			c0,0.2-0.2,0.4-0.4,0.6c-0.4,0.2-0.6,0.2-0.8,0.2c-0.4,0-0.4-0.2-0.4-0.4v-13.1c-0.6,0-1,0-1.2,0.2l-0.6-1.4
			c0.6,0,1.2,0.2,1.8,0.2v-1.2l2.2,1.2h5.8c0.2-1,0.4-2.2,0.6-3.4h-5.6c-0.2,0-0.4,0.2-0.6,0.2c-0.6,0-1-0.2-1-0.6s0-0.8,0-1.2
			c0-0.6,0-1,0-1.4v-5C391.7,1104.4,391.5,1103.6,391.5,1103z M398.8,1096.6c0.4,0.2,0.8,0.4,1.2,0.6c0.4,0.2,0.8,0.4,1,0.6
			s0.4,0.4,0.6,0.6c0,0.2,0.2,0.2,0.2,0.4c0,0.4,0,0.8-0.2,1.2c-0.2,0.2-0.2,0.2-0.4,0.4h6.4l1.6-1.6c0.8,0.6,1.6,1.2,2.2,1.8
			c0.2,0.2,0.2,0.2,0.2,0.4c0,0.4-0.2,0.6-0.4,0.6h-17.5c-1.8,0-3,0-3.6,0.2l-0.8-1.6c1,0.2,2.6,0.4,4.4,0.4h6.4
			c0,0-0.2-0.2-0.2-0.4c0-0.4-0.2-0.6-0.4-1c-0.2-0.4-0.4-0.6-0.6-0.8c-0.2-0.2-0.6-0.6-1-1L398.8,1096.6z M402.2,1102.8
			c1,0.4,1.8,0.8,2.4,1c0.2,0.2,0.4,0.4,0.4,0.6c0,0.4-0.6,0.6-1.6,0.6c-0.6,1-1,1.6-1.6,2.4l0,0c0.4,0.2,0.6,0.4,0.8,0.6
			c0.6,0.4,1.2,0.8,1.4,1.2c0.2,0.2,0.4,0.4,0.6,0.8c0,0.2,0.2,0.4,0.2,0.6c0,0.4-0.2,0.8-0.6,0.8c-0.2,0-0.4,0-0.4-0.2
			c-0.2,0-0.6-0.4-1-0.8c-0.6-0.6-1.2-1.2-1.8-1.8c-0.2,0.2-0.4,0.4-0.4,0.4c-0.6,0.6-1.4,1-2.2,1.6c-0.8,0.6-1.8,1-2.6,1.2
			l-0.4-0.2c1-0.4,1.8-1,2.6-1.6c0.6-0.6,1.2-1,1.8-1.6c0.2-0.2,0.4-0.4,0.6-0.6c-0.4-0.4-0.8-0.6-1.2-1c-0.8-0.4-1.8-1-2.8-1.6
			l0.6-0.4c1.4,0.4,2.6,1,3.8,1.6c0.2,0,0.4,0.2,0.4,0.2l0.2-0.2c0.4-0.6,0.8-1.2,1-1.8C402,1104,402.2,1103.4,402.2,1102.8z"/>
	</g>
</g>
<g>
	<path fill="#D52741" d="M415.5,893.8c0,1.8-1.4,3.2-3.2,3.2h-48.7c-1.8,0-3.2-1.4-3.2-3.2v-63c0-1.8,1.4-3.2,3.2-3.2h48.7
		c1.8,0,3.2,1.4,3.2,3.2V893.8z"/>
	<path fill="#99999A" d="M426,820.1c0,1.8-1.4,3.2-3.2,3.2h-41.9c-1.8,0-3.2-1.4-3.2-3.2v-44.7c0-1.8,1.4-3.2,3.2-3.2h41.9
		c1.8,0,3.2,1.4,3.2,3.2V820.1z"/>
	<path fill="#595757" d="M353.3,888.6c0,1.8-1.4,3.2-3.2,3.2h-36.6c-1.8,0-3.2-1.4-3.2-3.2v-45.7c0-1.8,1.4-3.2,3.2-3.2h36.6
		c1.8,0,3.2,1.4,3.2,3.2V888.6z"/>
	<g>
		<circle fill="#D52741" cx="355.9" cy="765.8" r="2.6"/>
		<circle fill="#D52741" cx="357.3" cy="771.4" r="2.6"/>
		<circle fill="#D52741" cx="358.5" cy="778.3" r="2.6"/>
		<circle fill="#D52741" cx="358.5" cy="784.3" r="2.6"/>
		<circle fill="#D52741" cx="316.6" cy="786.5" r="2.6"/>
		<circle fill="#D52741" cx="288.9" cy="785.9" r="2.6"/>
		<circle fill="#D52741" cx="284" cy="789.5" r="2.6"/>
		<circle fill="#D52741" cx="280.6" cy="795" r="2.6"/>
		<circle fill="#D52741" cx="279" cy="801.4" r="2.6"/>
		<circle fill="#D52741" cx="281" cy="808.3" r="2.6"/>
		<circle fill="#D52741" cx="284" cy="814.3" r="2.6"/>
		<circle fill="#D52741" cx="287.9" cy="820.3" r="2.6"/>
		<circle fill="#D52741" cx="313" cy="840.9" r="2.6"/>
		<circle fill="#D52741" cx="313.4" cy="847.1" r="2.6"/>
		<circle fill="#D52741" cx="318.1" cy="851.1" r="2.6"/>
		<circle fill="#D52741" cx="279.8" cy="784.9" r="2.6"/>
		<circle fill="#D52741" cx="274.2" cy="781.1" r="2.6"/>
		<circle fill="#D52741" cx="271.9" cy="774.8" r="2.6"/>
		<circle fill="#D52741" cx="274.2" cy="769" r="2.6"/>
		<circle fill="#D52741" cx="279.8" cy="765.8" r="2.6"/>
		<circle fill="#D52741" cx="311.2" cy="790.9" r="2.6"/>
		<circle fill="#D52741" cx="312.6" cy="797.6" r="2.6"/>
		<circle fill="#D52741" cx="362.8" cy="772.4" r="2.6"/>
		<circle fill="#D52741" cx="363.2" cy="766.2" r="2.6"/>
		<circle fill="#D52741" cx="363.2" cy="759.7" r="2.6"/>
		<circle fill="#D52741" cx="365.4" cy="753.3" r="2.6"/>
		<circle fill="#D52741" cx="368.4" cy="747.2" r="2.6"/>
		<circle fill="#D52741" cx="372.4" cy="742.4" r="2.6"/>
		<circle fill="#D52741" cx="369.6" cy="732.5" r="2.6"/>
		<circle fill="#D52741" cx="374.2" cy="728.1" r="2.6"/>
		<circle fill="#D52741" cx="372.6" cy="722.5" r="2.6"/>
		<circle fill="#D52741" cx="366.6" cy="719.7" r="2.6"/>
		<circle fill="#D52741" cx="354.5" cy="725.9" r="2.6"/>
		<circle fill="#D52741" cx="360.3" cy="721.7" r="2.6"/>
		<circle fill="#D52741" cx="351.9" cy="732.5" r="2.6"/>
		<circle fill="#D52741" cx="350.9" cy="739.4" r="2.6"/>
		<circle fill="#D52741" cx="351.5" cy="745.8" r="2.6"/>
		<circle fill="#D52741" cx="352.3" cy="752.3" r="2.6"/>
		<circle fill="#D52741" cx="353.7" cy="758.7" r="2.6"/>
		<circle fill="#D52741" cx="376.8" cy="738" r="2.6"/>
		<circle fill="#D52741" cx="382.3" cy="734.6" r="2.6"/>
		<circle fill="#D52741" cx="388.3" cy="732.3" r="2.6"/>
		<circle fill="#D52741" cx="394.4" cy="730.9" r="2.6"/>
		<circle fill="#D52741" cx="400.6" cy="731.5" r="2.6"/>
		<circle fill="#D52741" cx="405.8" cy="734.6" r="2.6"/>
		<circle fill="#D52741" cx="408.1" cy="740.2" r="2.6"/>
		<circle fill="#D52741" cx="405" cy="745.8" r="2.6"/>
		<circle fill="#D52741" cx="399.2" cy="744.6" r="2.6"/>
	</g>
	<g>
		<g>
			<g>
				<path fill="#DC6770" d="M309,851.9c-17.5,7.7-17.7,27.2-29.6,17.5c-8.7-15.9,22.3-18.7,28.2-25.4
					C305.6,847.7,308.2,851.5,309,851.9z"/>
			</g>
			<g>
				<path fill="#DC6770" d="M287.9,825.8c-7.7,1-18.7-17.3-27.8-11.3C255,819.9,270.1,830,287.9,825.8z"/>
			</g>
			<g>
				<path fill="#DC6770" d="M356.3,810.9c-10.7,1-24.4,10.3-24.2,14.7c0.2,3.8,7.2,12.9,14.5,12.9
					C354.7,836.8,354.7,826.8,356.3,810.9z"/>
			</g>
			<g>
				<path fill="#DC6770" d="M324.9,875.1c-6.8-14.1,20.7-26,24.2-33.4C347.3,859.8,335,883.8,324.9,875.1z"/>
			</g>
			<g>
				<path fill="#DC6770" d="M352.9,804.8c-5.2-1.2-22.8-20.3-32.8-16.1c-7.4,3.6-4.2,9.9-2.6,11.5c1.6,1.6,5.4,5.8,22.8,4.2
					C346.6,804,349.3,804.6,352.9,804.8z"/>
			</g>
			<g>
				<path fill="#DC6770" d="M296.7,783.7c5.8,0.6,9.5-4.6,28.8-0.4c8.9,2.2,20.3,14.3,22.8,15.3c-0.4-1.4-15.3-18.3-23-20.9
					C311.4,773,299.9,783.3,296.7,783.7z"/>
			</g>
			<g>
				<path fill="#DC6770" d="M331.1,765c-3.6-2.6-11.3-17.7-4.2-27.8c3.4-3.2,8.7-1.4,8.5,3.4C335.2,747.8,327.5,754.9,331.1,765"/>
			</g>
		</g>
	</g>
	<g>
		<g>
			<g>
				<path fill="#DC6770" d="M329.5,854.2c-2,0.6-8.9,1.2-12.9,1.2c-28,1-14.1,32.4,1.2,19.3c0,0,1.8-2,3-8.1
					C321.9,863.6,326.9,856,329.5,854.2z"/>
			</g>
			<g>
				<path fill="#DC6770" d="M327.1,823c-4.8,4.8-17.1,14.7-19.5,16.7c-5.6,5.2-32,17.3-30.8-2.4c0,0,1.2-8.1,14.5-9.9
					C297.1,826.4,309.8,829.2,327.1,823z"/>
			</g>
			<g>
				<path fill="#DC6770" d="M288.9,814.1c-15.3-20.9,11.5-29.6,20.3-29c-6.8,4.6-3.8,12.3,2.6,17.3c-16.7-1.2-17.1,17.1-9.3,20.1
					c-0.8,0.4-3.6,1.8-9.5,1C293.7,818.7,288.9,814.1,288.9,814.1z"/>
			</g>
			<g>
				<path fill="#DC6770" d="M322.5,762.7c-9.5-3.4-14.3,0-22.8-4.2c-8.5-4.2-13.5-9.5-11.3-15.5c2.2-6,10.9-5.6,19.7,4.4
					C317.3,757.7,319.1,759.9,322.5,762.7z"/>
			</g>
		</g>
	</g>
	<g>
		<path fill="#EA8C85" d="M358.5,808.3c-4.8-15.3,6.8-30.8,12.1-20.5C372.4,793.4,360.1,801.4,358.5,808.3z"/>
		<path fill="#EA8C85" d="M359.9,812.7c-0.6,6.6,9.5,12.9,11.9,8.3C373.4,816.3,361.9,816.1,359.9,812.7z"/>
	</g>
	<g>
		<g>
			<g>
				<path fill="#DEAAA7" d="M301.3,766.4c15.3-3,27.4,1.6,31.6,4.6c10.3,6.6,18.3,28.6,18.7,26.8c-2-0.6-10.9-12.7-17.3-17.9
					C334.6,780.1,327.3,772.6,301.3,766.4z"/>
			</g>
			<g>
				<path fill="#DEAAA7" d="M328.7,827.4c-18.9,4.4-13.5,38.9,15.5,14.7C341.8,840.5,334,840.1,328.7,827.4z"/>
			</g>
			<g>
				<path fill="#DEAAA7" d="M352.3,808.1c-32,5-47.1-11.9-51.3,5c0,0-0.6,9.5,10.5,9.9C326.3,821.7,342,810.9,352.3,808.1z"/>
			</g>
			<g>
				<path fill="#DEAAA7" d="M298.9,762.5c-8.5,0.2-40.1,0-41.9-12.9c0.6-7.4,7.4-5.2,8.5-5.2C273.6,745.8,291.7,761.7,298.9,762.5z"
					/>
			</g>
			<g>
				<path fill="#DEAAA7" d="M315,774c-0.6,0-26.6-11.9-36.6-1.8c-4.4,4.4,2.2,10.3,8.7,9.7C293.7,781.7,300.7,777.8,315,774z"/>
			</g>
		</g>
	</g>
</g>
<g>
	<path fill="#284252" d="M213.4,893.8c0,1.8-1.4,3.2-3.2,3.2h-48.7c-1.8,0-3.2-1.4-3.2-3.2v-63c0-1.8,1.4-3.2,3.2-3.2h48.7
		c1.8,0,3.2,1.4,3.2,3.2V893.8z"/>
	<path fill="#CED1D7" d="M223.6,820.1c0,1.8-1.4,3.2-3.2,3.2h-41.9c-1.8,0-3.2-1.4-3.2-3.2v-44.7c0-1.8,1.4-3.2,3.2-3.2h41.9
		c1.8,0,3.2,1.4,3.2,3.2V820.1z"/>
	<path fill="#91969D" d="M150.9,888.6c0,1.8-1.4,3.2-3.2,3.2h-36.6c-1.8,0-3.2-1.4-3.2-3.2v-45.7c0-1.8,1.4-3.2,3.2-3.2h36.6
		c1.8,0,3.2,1.4,3.2,3.2V888.6z"/>
	<g>
		<g>
			<circle fill="#5A95AF" cx="153.6" cy="765.6" r="2.6"/>
			<circle fill="#5A95AF" cx="155" cy="771.4" r="2.6"/>
			<circle fill="#5A95AF" cx="156.4" cy="778.3" r="2.6"/>
			<circle fill="#5A95AF" cx="156.4" cy="784.3" r="2.6"/>
			<circle fill="#5A95AF" cx="114.5" cy="786.3" r="2.6"/>
			<circle fill="#5A95AF" cx="86.7" cy="785.9" r="2.6"/>
			<circle fill="#5A95AF" cx="81.7" cy="789.5" r="2.6"/>
			<circle fill="#5A95AF" cx="78.3" cy="795" r="2.6"/>
			<circle fill="#5A95AF" cx="76.7" cy="801.4" r="2.6"/>
			<circle fill="#5A95AF" cx="78.7" cy="808.3" r="2.6"/>
			<circle fill="#5A95AF" cx="81.7" cy="814.3" r="2.6"/>
			<circle fill="#5A95AF" cx="85.5" cy="820.3" r="2.6"/>
			<circle fill="#5A95AF" cx="110.7" cy="840.9" r="2.6"/>
			<circle fill="#5A95AF" cx="111.1" cy="847.1" r="2.6"/>
			<circle fill="#5A95AF" cx="115.7" cy="851.1" r="2.6"/>
			<circle fill="#5A95AF" cx="77.5" cy="784.9" r="2.6"/>
			<circle fill="#5A95AF" cx="71.8" cy="781.1" r="2.6"/>
			<circle fill="#5A95AF" cx="69.6" cy="774.6" r="2.6"/>
			<circle fill="#5A95AF" cx="71.8" cy="769" r="2.6"/>
			<circle fill="#5A95AF" cx="77.5" cy="765.8" r="2.6"/>
			<circle fill="#5A95AF" cx="109.1" cy="790.7" r="2.6"/>
			<circle fill="#5A95AF" cx="110.3" cy="797.6" r="2.6"/>
			<circle fill="#5A95AF" cx="160.4" cy="772.4" r="2.6"/>
			<circle fill="#5A95AF" cx="160.8" cy="766" r="2.6"/>
			<circle fill="#5A95AF" cx="160.8" cy="759.7" r="2.6"/>
			<circle fill="#5A95AF" cx="163" cy="753.3" r="2.6"/>
			<circle fill="#5A95AF" cx="166.2" cy="747.2" r="2.6"/>
			<circle fill="#5A95AF" cx="170.1" cy="742.4" r="2.6"/>
			<circle fill="#5A95AF" cx="167.5" cy="732.5" r="2.6"/>
			<circle fill="#5A95AF" cx="171.9" cy="728.1" r="2.6"/>
			<circle fill="#5A95AF" cx="170.5" cy="722.5" r="2.6"/>
			<circle fill="#5A95AF" cx="164.4" cy="719.7" r="2.6"/>
			<circle fill="#5A95AF" cx="152.4" cy="725.7" r="2.6"/>
			<circle fill="#5A95AF" cx="158" cy="721.7" r="2.6"/>
			<circle fill="#5A95AF" cx="149.5" cy="732.5" r="2.6"/>
			<circle fill="#5A95AF" cx="148.5" cy="739.4" r="2.6"/>
			<circle fill="#5A95AF" cx="149.1" cy="745.8" r="2.6"/>
			<circle fill="#5A95AF" cx="150.1" cy="752.3" r="2.6"/>
			<circle fill="#5A95AF" cx="151.4" cy="758.7" r="2.6"/>
			<circle fill="#5A95AF" cx="174.7" cy="738" r="2.6"/>
			<circle fill="#5A95AF" cx="179.9" cy="734.4" r="2.6"/>
			<circle fill="#5A95AF" cx="186" cy="732.3" r="2.6"/>
			<circle fill="#5A95AF" cx="192" cy="730.9" r="2.6"/>
			<circle fill="#5A95AF" cx="198.3" cy="731.5" r="2.6"/>
			<circle fill="#5A95AF" cx="203.5" cy="734.4" r="2.6"/>
			<circle fill="#5A95AF" cx="205.9" cy="740" r="2.6"/>
			<circle fill="#5A95AF" cx="202.9" cy="745.8" r="2.6"/>
			<circle fill="#5A95AF" cx="196.9" cy="744.6" r="2.6"/>
		</g>
	</g>
	<g>
		<g>
			<g>
				<path fill="#115180" d="M154.2,810.9c-10.7,1-24.4,10.3-24.2,14.7c0.2,3.8,7.2,12.9,14.5,12.9
					C152.4,836.8,152.4,826.8,154.2,810.9z"/>
			</g>
			<g>
				<path fill="#115180" d="M122.6,875.1c-6.8-14.1,20.7-26,24.2-33.4C144.9,859.8,132.6,883.8,122.6,875.1z"/>
			</g>
			<g>
				<path fill="#115180" d="M106.7,851.9c-17.5,7.7-17.7,27.2-29.6,17.5c-8.7-15.9,22.3-18.7,28.2-25.4
					C103.2,847.7,105.8,851.5,106.7,851.9z"/>
			</g>
			<g>
				<path fill="#115180" d="M85.5,825.8c-7.7,1-18.7-17.3-27.8-11.3C52.7,819.9,67.8,830,85.5,825.8z"/>
			</g>
			<g>
				<path fill="#115180" d="M150.7,804.8c-5.2-1.2-22.8-20.3-32.8-16.1c-7.4,3.6-4.2,9.9-2.6,11.5c1.6,1.6,5.4,5.8,22.8,4.2
					C144.5,804,146.9,804.6,150.7,804.8z"/>
			</g>
			<g>
				<path fill="#115180" d="M94.4,783.7c5.8,0.6,9.5-4.6,28.8-0.4c8.9,2.2,20.3,14.3,22.8,15.3c-0.4-1.4-15.3-18.3-23-20.9
					C109.1,773,97.6,783.3,94.4,783.7z"/>
			</g>
			<g>
				<path fill="#115180" d="M128.8,765c-3.6-2.6-11.3-17.7-4.2-27.8c3.4-3.2,8.7-1.4,8.5,3.4C132.8,747.8,125.2,754.9,128.8,765"/>
			</g>
		</g>
	</g>
	<g>
		<g>
			<g>
				<path fill="#284252" d="M127.4,854.2c-2,0.6-8.9,1.2-13.1,1.2c-28,1-14.1,32.4,1.2,19.3c0,0,1.8-2,3-8.1
					C119.5,863.6,124.6,856,127.4,854.2z"/>
			</g>
			<g>
				<path fill="#284252" d="M124.8,823c-4.8,4.8-17.1,14.7-19.5,16.7c-5.6,5.2-32,17.3-30.8-2.4c0,0,1.2-8.1,14.5-9.9
					C94.8,826.4,107.5,829.2,124.8,823z"/>
			</g>
			<g>
				<path fill="#284252" d="M86.7,813.9c-15.3-20.9,11.5-29.6,20.3-29c-6.8,4.6-3.8,12.3,2.6,17.3c-16.7-1.2-17.1,17.1-9.3,20.1
					c-0.8,0.4-3.6,1.8-9.5,1C91.6,818.7,86.7,813.9,86.7,813.9z"/>
			</g>
			<g>
				<path fill="#284252" d="M120.1,762.7c-9.5-3.4-14.3,0-22.8-4.2c-8.5-4.2-13.5-9.5-11.3-15.5c2.2-6,10.9-5.6,19.7,4.4
					C114.9,757.7,116.9,759.9,120.1,762.7z"/>
			</g>
		</g>
	</g>
	<g>
		<g>
			<g>
				<path fill="#5A95AF" d="M99.2,766.4c15.3-3,27.4,1.6,31.6,4.6c10.3,6.6,18.3,28.6,18.7,26.8c-2-0.6-10.9-12.7-17.3-17.9
					C132.2,780.1,125,772.4,99.2,766.4z"/>
			</g>
			<g>
				<path fill="#5A95AF" d="M156.2,808.3c-4.8-15.3,6.8-30.8,12.1-20.5C170.3,793.4,157.8,801.4,156.2,808.3z"/>
			</g>
			<g>
				<path fill="#5A95AF" d="M157.6,812.7c-0.6,6.6,9.5,12.9,11.9,8.3C171.1,816.3,159.6,816.1,157.6,812.7z"/>
			</g>
			<g>
				<path fill="#5A95AF" d="M126.4,827.4c-18.9,4.4-13.5,38.9,15.5,14.7C139.5,840.5,131.6,840.1,126.4,827.4z"/>
			</g>
			<g>
				<path fill="#5A95AF" d="M149.9,808.1c-32,5-47.1-11.9-51.3,5c0,0-0.6,9.5,10.5,9.9C124.2,821.7,139.7,810.9,149.9,808.1z"/>
			</g>
			<g>
				<path fill="#5A95AF" d="M96.8,762.5c-8.5,0.2-40.1,0-41.9-12.9c0.6-7.4,7.4-5.2,8.5-5.2C71.4,745.6,89.3,761.7,96.8,762.5z"/>
			</g>
			<g>
				<path fill="#5A95AF" d="M112.7,773.8c-0.6,0-26.6-11.9-36.6-1.8c-4.4,4.4,2.2,10.3,8.7,9.7C91.6,781.7,98.4,777.8,112.7,773.8z"
					/>
			</g>
		</g>
	</g>
</g>
</svg>
