<?xml version="1.0" encoding="utf-8"?>
<!-- Generator: Adobe Illustrator 18.0.0, SVG Export Plug-In . SVG Version: 6.00 Build 0)  -->
<!DOCTYPE svg PUBLIC "-//W3C//DTD SVG 1.1//EN" "http://www.w3.org/Graphics/SVG/1.1/DTD/svg11.dtd">
<svg version="1.1" id="图层_1" xmlns="http://www.w3.org/2000/svg" xmlns:xlink="http://www.w3.org/1999/xlink" x="0px" y="0px"
	 viewBox="0 0 480 480" enable-background="new 0 0 480 480" xml:space="preserve">
<g>
	<path fill="#E18037" d="M450.8,272.7c0,4.6-3.7,8.3-8.3,8.3H338.2c-4.6,0-8.3-3.7-8.3-8.3V161.3c0-4.6,3.7-8.3,8.3-8.3h104.4
		c4.6,0,8.3,3.7,8.3,8.3L450.8,272.7L450.8,272.7z"/>
	<path fill="#46807C" d="M269.4,443.7c0,4.6-3.7,8.3-8.3,8.3h-91.5c-4.6,0-8.3-3.7-8.3-8.3V329.4c0-4.6,3.7-8.3,8.3-8.3h91.5
		c4.6,0,8.3,3.7,8.3,8.3V443.7z"/>
	<path fill="#CBD262" d="M425,456.7c0,4.6-3.7,8.3-8.3,8.3H295.1c-4.6,0-8.3-3.7-8.3-8.3V299.3c0-4.6,3.7-8.3,8.3-8.3h121.6
		c4.6,0,8.3,3.7,8.3,8.3V456.7z"/>
	<path fill="#C34222" d="M173.9,157.1c-1.4,0.1-66.4-29.7-91.6-4.7c-11.2,11.2,5.5,25.5,21.8,24.1
		C120.7,176.6,138.2,166.9,173.9,157.1z"/>
	<path fill="#C34222" d="M133.8,128.6c-21,0.3-100,0-104.6-32.2c1.5-18.5,18.8-13.1,21-13.1C70.4,86.8,115.6,126.6,133.8,128.6z"/>
	<path fill="#882022" d="M192.4,129.5c-23.9-8.6-35.8,0.1-56.7-10.6s-33.8-23.7-28.4-38.6s26.9-14.3,49.3,10.9
		C179.5,116.9,184,122,192.4,129.5z"/>
	<path fill="#E18037" d="M214.3,134.8c-9.1-6.4-28-44.2-10.6-69.3c8.7-7.9,21.8-3.3,21.3,8.5C224.2,92.1,204.9,109.7,214.3,134.8"/>
	<path fill="#C34222" d="M139.9,138.2c38.2-7.4,68.4,3.9,79.1,11.8c25.4,16.8,45.8,71.2,47,67.1c-5.2-1.7-27.3-31.7-43.2-44.6
		C222.7,172.5,204.4,153.6,139.9,138.2z"/>
	<path fill="#E18037" d="M128.1,181.5c14.7,1.7,23.8-11.6,71.7-1.1c21.9,5.6,50.8,35.7,56.8,38.3c-1.1-3.7-38.2-45.8-57.4-52.1
		C164.9,154.7,136.1,180.5,128.1,181.5z"/>
	<path fill="#E18037" d="M268.6,234.3c-13-2.8-56.9-51-82-40.2c-18.5,9.2-10.5,24.9-6.5,28.8c3.9,3.9,13.5,14.8,56.7,10.7
		C253,232.3,259.2,233.8,268.6,234.3z"/>
	<path fill="#C34222" d="M266.9,242.4c-79.7,12.8-117.4-29.8-128.5,12.8c0,0-1.4,23.6,26.3,24.5
		C202.3,276.3,241.1,249.3,266.9,242.4z"/>
	<path fill="#882022" d="M108.7,257.2c-38.1-52.1,28.5-73.6,51-72.5c-17.2,11.7-9.6,30.9,6.5,43.4c-41.9-3.1-42.9,42.8-23.1,50.4
		c-2.1,1-9.2,4.6-23.6,2.4C120.7,269.1,108.7,257.2,108.7,257.2z"/>
	<path fill="#E18037" d="M106.1,286.8c-19.2,2.4-46.7-43.3-69.5-28C23.9,271.8,61.6,297,106.1,286.8z"/>
	<path fill="#882022" d="M203.9,279.8c-12.2,12.3-42.6,36.9-48.6,41.8c-14.2,13-79.7,43.2-77-6c0,0,3.1-20.3,36.1-24.6
		C129.1,288.2,160.8,295.4,203.9,279.8z"/>
	<path fill="#E18037" d="M158.6,352.1c-43.5,19.3-44.1,67.9-73.7,43.6c-21.5-39.7,55.6-46.8,70.5-63.1
		C150.1,341.3,156.8,351.1,158.6,352.1z"/>
	<path fill="#882022" d="M210.3,357.4c-4.9,1.6-21.9,2.9-32.4,2.9c-69.8,2.5-35.2,80.8,3.1,48.3c0,0,4.5-4.9,7.7-20.2
		C191,381.2,203.6,362,210.3,357.4z"/>
	<path fill="#E18037" d="M198.3,409.9c-17.2-35.2,51.6-64.8,60.5-83.5C254.3,371.4,223.5,431.3,198.3,409.9z"/>
	<path fill="#C34222" d="M207.8,290.8c-47.4,11.3-33.5,96.8,38.5,36.9C240.9,323.3,221.1,322.5,207.8,290.8z"/>
	<path fill="#E18037" d="M277.1,249.6c-26.8,2.7-60.6,25.7-60.3,36.9c0.8,9.4,18.3,32.1,36.1,32.2
		C272.8,314.4,272.9,289.2,277.1,249.6z"/>
	<path fill="#C34222" d="M286,253.9c-1.7,16.6,23.4,32.4,29.8,20.8C319.6,262.8,291,262.2,286,253.9z"/>
	<path fill="#C34222" d="M282.4,242.6c-12-38.2,17.2-77,30-51C317.3,205.5,286.6,225.9,282.4,242.6z"/>
	<g>
		<g>
			<circle fill="#CBD262" cx="276" cy="136.5" r="6.8"/>
			<circle fill="#CBD262" cx="279.4" cy="151.1" r="6.8"/>
			<circle fill="#CBD262" cx="282.8" cy="168" r="6.8"/>
			<circle fill="#CBD262" cx="282.8" cy="183.1" r="6.8"/>
			<circle fill="#CBD262" cx="178.1" cy="188.3" r="6.8"/>
			<circle fill="#CBD262" cx="108.7" cy="187.2" r="6.8"/>
			<circle fill="#CBD262" cx="96.5" cy="196.3" r="6.8"/>
			<circle fill="#CBD262" cx="87.7" cy="209.8" r="6.8"/>
			<circle fill="#CBD262" cx="83.8" cy="226" r="6.8"/>
			<circle fill="#CBD262" cx="88.8" cy="242.7" r="6.8"/>
			<circle fill="#CBD262" cx="96.5" cy="257.8" r="6.8"/>
			<circle fill="#CBD262" cx="106.1" cy="273" r="6.8"/>
			<circle fill="#CBD262" cx="168.7" cy="324.3" r="6.8"/>
			<circle fill="#CBD262" cx="169.9" cy="339.9" r="6.8"/>
			<circle fill="#CBD262" cx="181.3" cy="350" r="6.8"/>
			<circle fill="#CBD262" cx="86" cy="184.7" r="6.8"/>
			<circle fill="#CBD262" cx="71.6" cy="174.8" r="6.8"/>
			<circle fill="#CBD262" cx="66.2" cy="159.2" r="6.8"/>
			<circle fill="#CBD262" cx="71.6" cy="144.7" r="6.8"/>
			<circle fill="#CBD262" cx="86" cy="136.8" r="6.8"/>
			<circle fill="#CBD262" cx="164.5" cy="199.4" r="6.8"/>
			<circle fill="#CBD262" cx="167.8" cy="216.1" r="6.8"/>
			<path fill="#CBD262" d="M292.9,146.5c-3.7,0-6.8,3.1-6.8,6.8c0,3.7,3.1,6.8,6.8,6.8s6.8-3.1,6.8-6.8
				C299.7,149.6,296.6,146.5,292.9,146.5z"/>
			<path fill="#CBD262" d="M293.8,130.8c-3.7,0-6.8,3.1-6.8,6.8c0,3.7,3.1,6.8,6.8,6.8c3.7,0,6.8-3.1,6.8-6.8
				C300.5,133.9,297.6,130.8,293.8,130.8z"/>
			<path fill="#CBD262" d="M293.8,114.8c-3.7,0-6.8,3.1-6.8,6.8c0,3.7,3.1,6.8,6.8,6.8c3.7,0,6.8-3.1,6.8-6.8
				C300.5,117.8,297.6,114.8,293.8,114.8z"/>
			<path fill="#CBD262" d="M299.7,99.1c-3.7,0-6.8,3.1-6.8,6.8c0,3.7,3.1,6.8,6.8,6.8c3.7,0,6.8-3.1,6.8-6.8
				C306.4,102.1,303.4,99.1,299.7,99.1z"/>
			<path fill="#CBD262" d="M307.3,83.8c-3.7,0-6.8,3.1-6.8,6.8c0,3.7,3.1,6.8,6.8,6.8c3.7,0,6.8-3.1,6.8-6.8
				C314.1,86.9,311.1,83.8,307.3,83.8z"/>
			<path fill="#CBD262" d="M317,71.9c-3.7,0-6.8,3.1-6.8,6.8s3.1,6.8,6.8,6.8c3.7,0,6.8-3.1,6.8-6.8S320.7,71.9,317,71.9z"/>
			<circle fill="#CBD262" cx="310.2" cy="53.8" r="6.8"/>
			<circle fill="#CBD262" cx="321.7" cy="42.9" r="6.8"/>
			<circle fill="#CBD262" cx="317.9" cy="28.5" r="6.8"/>
			<circle fill="#CBD262" cx="302.7" cy="21.8" r="6.8"/>
			<circle fill="#CBD262" cx="272.6" cy="37" r="6.8"/>
			<circle fill="#CBD262" cx="287.1" cy="26.5" r="6.8"/>
			<circle fill="#CBD262" cx="265.8" cy="53.8" r="6.8"/>
			<circle fill="#CBD262" cx="263.4" cy="70.7" r="6.8"/>
			<path fill="#CBD262" d="M271.5,87.1c0-3.7-3.1-6.8-6.8-6.8c-3.7,0-6.8,3.1-6.8,6.8c0,3.7,3.1,6.8,6.8,6.8
				C268.5,93.9,271.5,90.8,271.5,87.1z"/>
			<path fill="#CBD262" d="M273.9,102.9c0-3.7-3.1-6.8-6.8-6.8c-3.7,0-6.8,3.1-6.8,6.8s3.1,6.8,6.8,6.8
				C270.9,109.7,273.9,106.6,273.9,102.9z"/>
			<path fill="#CBD262" d="M277,119.4c0-3.7-3.1-6.8-6.8-6.8c-3.7,0-6.8,3.1-6.8,6.8c0,3.7,3.1,6.8,6.8,6.8S277,123.1,277,119.4z"/>
			<path fill="#CBD262" d="M328.5,60.6c-3.7,0-6.8,3.1-6.8,6.8c0,3.7,3.1,6.8,6.8,6.8s6.8-3.1,6.8-6.8
				C335.1,63.6,332.2,60.6,328.5,60.6z"/>
			<path fill="#CBD262" d="M341.9,51.9c-3.7,0-6.8,3.1-6.8,6.8c0,3.7,3.1,6.8,6.8,6.8c3.7,0,6.8-3.1,6.8-6.8
				C348.6,54.9,345.7,51.9,341.9,51.9z"/>
			<path fill="#CBD262" d="M356.9,46.5c-3.7,0-6.8,3.1-6.8,6.8c0,3.7,3.1,6.8,6.8,6.8c3.7,0,6.8-3.1,6.8-6.8
				C363.7,49.6,360.6,46.5,356.9,46.5z"/>
			<path fill="#CBD262" d="M372,42.9c-3.7,0-6.8,3.1-6.8,6.8s3.1,6.8,6.8,6.8c3.7,0,6.8-3.1,6.8-6.8S375.7,42.9,372,42.9z"/>
			<circle fill="#CBD262" cx="387.7" cy="51.2" r="6.8"/>
			<circle fill="#CBD262" cx="400.8" cy="58.6" r="6.8"/>
			<path fill="#CBD262" d="M406.3,65.9c-3.7,0-6.8,3.1-6.8,6.8c0,3.7,3.1,6.8,6.8,6.8c3.7,0,6.8-3.1,6.8-6.8
				C413.1,69,410,65.9,406.3,65.9z"/>
			<path fill="#CBD262" d="M398.8,80.3c-3.7,0-6.8,3.1-6.8,6.8c0,3.7,3.1,6.8,6.8,6.8c3.7,0,6.8-3.1,6.8-6.8
				C405.6,83.4,402.5,80.3,398.8,80.3z"/>
			<path fill="#CBD262" d="M384,77.1c-3.7,0-6.8,3.1-6.8,6.8c0,3.7,3.1,6.8,6.8,6.8c3.7,0,6.8-3.1,6.8-6.8
				C390.7,80.1,387.8,77.1,384,77.1z"/>
		</g>
	</g>
</g>
</svg>
