<svg xmlns="http://www.w3.org/2000/svg" width="24" height="24" viewBox="0 0 24 24"><path fill="currentColor" d="M12.1 7.2c.1.3.1.7.1 1.1 0 .3-.1.6-.1.8-.2.8-.8 1.2-1.5 1.4-.8.3-1.5 0-2.1-.5-.5-.5-.8-1-1.1-1.7-.3-.7-.4-1.5-.4-2.2 0-.6.2-1.2.6-1.6.6-.5 1.2-.6 1.9-.6.7.1 1.2.5 1.6 1 .5.7.8 1.4 1 2.3zM24 12c0 6.6-5.4 12-12 12S0 18.6 0 12 5.4 0 12 0s12 5.4 12 12zM12.7 4H14c.1 0 .2 0 .2-.1.4-.3.9-.5 1.3-.8l.1-.1h-6c-.8 0-1.7.2-2.4.6-.5.2-1 .6-1.4 1-.8.9-1.1 2.1-1 3.3.3 1.1.8 1.9 1.6 2.5.7.5 1.4.7 2.3.7h.9c-.5.9-.2 1.7.5 2.4-.5.1-1 .1-1.5.2-.8.1-1.5.3-2.2.5-.8.3-1.5.7-2 1.4-.8 1-.9 2.2-.3 3.2.3.8.9 1.2 1.6 1.6.9.4 1.8.6 2.7.6.6 0 1.1 0 1.7-.1.9-.1 1.7-.3 2.5-.7.8-.4 1.5-1 2-1.8.8-1.3.7-3.1-.5-4.3-.3-.3-.7-.6-1-.9-.3-.3-.7-.5-1-.8-.5-.4-.5-1-.1-1.5.1-.2.3-.4.5-.5.3-.2.5-.4.8-.7 1.1-1.1 1.4-2.4.9-3.8-.2-.7-.6-1.2-1.2-1.7-.1-.1-.2-.1-.3-.2zm8.8 8.2V11h-2.4V8.7h-1.2V11h-2.3v1.2h2.3v2.3h1.2v-2.4c.9.1 1.7.1 2.4.1zm-11 2.1c-.6 0-1.3.1-1.9.2-.6.1-1.2.3-1.7.7-1.3.8-1.3 2.4-.5 3.4.3.4.8.7 1.3.9.8.3 1.5.4 2.4.4.3 0 .5 0 .8-.1.5-.1 1-.2 1.5-.4 1-.6 1.4-1.6 1.2-2.6-.1-.4-.4-.8-.7-1.1-.5-.5-1.1-.9-1.6-1.3-.3 0-.5-.1-.8-.1z"/></svg>