<svg xmlns="http://www.w3.org/2000/svg" width="24" height="24" viewBox="0 0 24 24"><path d="M14.9 16.1V7.4h3.4v8.7H17l-1.5 1.1-.4-1.1h-.2zM24 12c0 6.6-5.4 12-12 12S0 18.6 0 12 5.4 0 12 0s12 5.4 12 12zm-11.3-.4c-.1-.4-.3-.6-.7-.6H9.7V7.5h2c.3 0 .5 0 .7-.2.1-.2.1-.4.1-.7-.1-.5-.2-.9-.9-.9H7.4c.2-.6.4-1.1.6-1.7 0-.1.1-.2 0-.4-.2 0-.4-.1-.5 0h-.1c-.2 0-.4.1-.6.2-.4.2-.8.5-1 1C5.2 6.3 4.7 7.7 4.1 9c0 .1-.1.2 0 .4 0 .1.1.1.3.1h.1c.8-.1 1.4-.4 1.8-1 .2-.3.3-.6.4-.9v-.1h1.1c0 1-.1 2.8-.1 3.5H5.2c-.2 0-.3 0-.5.1-.3.2-.7 1-.7 1.3 0 .2.2.4.4.4h3.1c0 .2-.1.5-.1.7-.2 1.1-.7 2.2-1.4 3.2-.5.7-1.2 1.4-2.1 2.1-.1.1-.3.2-.2.5.1.2.3.3.4.3h.3c.6 0 1.1-.1 1.8-.4.3-.1.5-.3.8-.6.7-.9 1.3-1.9 1.7-3.2.7.8 2.1 2.6 2.5 3.1 0 0 .1.2.3.2h.1c.1-.1.2-.2.2-.3.1-.3.1-.5.1-.9.1-.7-.1-1.3-.6-1.8-.4-.4-.8-.8-1.1-1.3-.2-.2-.3-.4-.5-.6v-.1h-.2c-.1 0-.2.1-.3.1.1-.5.2-1 .2-1.2h3.4v-.2c.1-.1 0-.5-.1-.8zm7.5-6h-7.1v12.3h1.3l.6 1.6 2.3-1.6h2.9V5.6z"/></svg>