<svg xmlns="http://www.w3.org/2000/svg" width="24" height="24"><path fill="#FFF" d="M12 0C5.4 0 0 5.4 0 12c0 5.6 3.9 10.4 9.2 11.7.1-.3.1-.5.1-.6v-4c-.5 0-1.1.1-1.6.1-1.1-.1-2-.5-2.4-1.6-.3-.8-.7-1.4-1.3-1.8l-.3-.3c-.1-.1-.1-.3.1-.3s.4-.1.6 0c.7.1 1.2.6 1.6 1.2.8 1.2 1.9 1.5 3.2 1 .1 0 .2-.1.2-.2.1-.5.3-1 .7-1.4-.4-.1-.8-.1-1.2-.2-1.1-.3-2.2-.7-2.9-1.7-.6-.8-.9-1.7-1-2.6-.2-1.5 0-2.9 1-4.1-.1-.2-.1-.3-.1-.4-.3-.8-.2-1.7 0-2.5.1-.4.2-.5.6-.4h.1c.9.2 1.7.6 2.5 1.1.1 0 .2.1.3.1 1.8-.4 3.6-.4 5.5 0 .1 0 .2 0 .3-.1.4-.2.8-.5 1.2-.7.5-.2 1-.4 1.6-.4.1 0 .2.1.3.2.3.9.4 1.8.1 2.7 0 .1 0 .2.1.3.3.5.6.9.8 1.4.5 1.6.3 3.1-.4 4.6-.6 1.3-1.8 2-3.2 2.4-.5.1-.9.2-1.5.3.7.7.8 1.5.8 2.4v4.6c0 .2 0 .5.1.8 5.1-1.4 8.8-6 8.8-11.6C24 5.4 18.6 0 12 0z"/></svg>