<svg>
	<path fill="#FFFFFF" d="M12.1,7.2c0.1,0.3,0.1,0.7,0.1,1.1c0,0.3-0.1,0.6-0.1,0.8c-0.2,0.8-0.8,1.2-1.5,1.4c-0.8,0.3-1.5,0-2.1-0.5
		c-0.5-0.5-0.8-1-1.1-1.7C7.1,7.6,7,6.8,7,6.1c0-0.6,0.2-1.2,0.6-1.6C8.2,4,8.8,3.9,9.5,3.9c0.7,0.1,1.2,0.5,1.6,1
		C11.6,5.6,11.9,6.3,12.1,7.2z M24,12c0,6.6-5.4,12-12,12S0,18.6,0,12S5.4,0,12,0S24,5.4,24,12z M12.7,4c0.4,0,0.9,0,1.3,0
		c0.1,0,0.2,0,0.2-0.1c0.4-0.3,0.9-0.5,1.3-0.8c0,0,0.1-0.1,0.1-0.1c-0.1,0-0.1,0-0.2,0c-0.2,0-0.5,0-0.7,0c-1.7,0-3.4,0-5.1,0
		c-0.8,0-1.7,0.2-2.4,0.6c-0.5,0.2-1,0.6-1.4,1c-0.8,0.9-1.1,2.1-1,3.3C5.1,9,5.6,9.8,6.4,10.4c0.7,0.5,1.4,0.7,2.3,0.7
		c0.3,0,0.6,0,0.9,0c-0.5,0.9-0.2,1.7,0.5,2.4c-0.5,0.1-1,0.1-1.5,0.2c-0.8,0.1-1.5,0.3-2.2,0.5c-0.8,0.3-1.5,0.7-2,1.4
		c-0.8,1-0.9,2.2-0.3,3.2C4.4,19.6,5,20,5.7,20.4c0.9,0.4,1.8,0.6,2.7,0.6c0.6,0,1.1,0,1.7-0.1c0.9-0.1,1.7-0.3,2.5-0.7
		c0.8-0.4,1.5-1,2-1.8c0.8-1.3,0.7-3.1-0.5-4.3c-0.3-0.3-0.7-0.6-1-0.9c-0.3-0.3-0.7-0.5-1-0.8c-0.5-0.4-0.5-1-0.1-1.5
		c0.1-0.2,0.3-0.4,0.5-0.5c0.3-0.2,0.5-0.4,0.8-0.7c1.1-1.1,1.4-2.4,0.9-3.8c-0.2-0.7-0.6-1.2-1.2-1.7C12.9,4.1,12.8,4.1,12.7,4z
		 M21.5,12.2c0-0.4,0-0.8,0-1.2c-0.8,0-1.6,0-2.4,0c0-0.8,0-1.6,0-2.3c-0.4,0-0.8,0-1.2,0c0,0.8,0,1.6,0,2.3c-0.8,0-1.6,0-2.3,0
		c0,0.4,0,0.8,0,1.2c0.8,0,1.6,0,2.3,0c0,0.8,0,1.6,0,2.3c0.4,0,0.8,0,1.2,0c0-0.8,0-1.6,0-2.4C20,12.2,20.8,12.2,21.5,12.2z
		 M10.5,14.3c-0.6,0-1.3,0.1-1.9,0.2c-0.6,0.1-1.2,0.3-1.7,0.7c-1.3,0.8-1.3,2.4-0.5,3.4c0.3,0.4,0.8,0.7,1.3,0.9
		c0.8,0.3,1.5,0.4,2.4,0.4c0.3,0,0.5,0,0.8-0.1c0.5-0.1,1-0.2,1.5-0.4c1-0.6,1.4-1.6,1.2-2.6c-0.1-0.4-0.4-0.8-0.7-1.1
		c-0.5-0.5-1.1-0.9-1.6-1.3C11,14.4,10.8,14.3,10.5,14.3z"/>
</svg>
