<!DOCTYPE svg>
<svg version="1.1" xmlns="http://www.w3.org/2000/svg" width="24px" height="24px" xml:space="preserve">
<path fill="#FFFFFF" d="M14.9,16.1V7.4h3.4v8.7h-1.3l-1.5,1.1l-0.4-1.1H14.9z M24,12c0,6.6-5.4,12-12,12C5.4,24,0,18.6,0,12
	S5.4,0,12,0C18.6,0,24,5.4,24,12z M12.7,11.6L12.7,11.6C12.6,11.2,12.4,11,12,11l0,0c-0.6,0-1.8,0-2.3,0c0-0.7,0-2.5,0-3.5
	c0.3,0,0.6,0,0.9,0l1.1,0c0.3,0,0.5,0,0.7-0.2c0.1-0.2,0.1-0.4,0.1-0.7c-0.1-0.5-0.2-0.9-0.9-0.9l0,0c-0.5,0-1.1,0-1.8,0
	c-0.4,0-0.8,0-1.2,0c-0.4,0-0.8,0-1.2,0h0c0.2-0.6,0.4-1.1,0.6-1.7c0-0.1,0.1-0.2,0-0.4C7.8,3.6,7.6,3.5,7.5,3.6c0,0-0.1,0-0.1,0
	c-0.2,0-0.4,0.1-0.6,0.2c-0.4,0.2-0.8,0.5-1,1C5.2,6.3,4.7,7.7,4.1,9c0,0.1-0.1,0.2,0,0.4c0,0.1,0.1,0.1,0.3,0.1c0,0,0.1,0,0.1,0
	c0.8-0.1,1.4-0.4,1.8-1c0.2-0.3,0.3-0.6,0.4-0.9l0-0.1c0,0,0,0,0,0c0.4,0,0.8,0,1.1,0c0,1-0.1,2.8-0.1,3.5c-0.5,0-1.8,0-2.5,0
	c-0.2,0-0.3,0-0.5,0.1C4.4,11.3,4,12.1,4,12.4c0,0.2,0.2,0.4,0.4,0.4h0c0,0,0.2,0,1,0c0.7,0,1.7,0,2.1,0c0,0.2-0.1,0.5-0.1,0.7
	c-0.2,1.1-0.7,2.2-1.4,3.2c-0.5,0.7-1.2,1.4-2.1,2.1l0,0c-0.1,0.1-0.3,0.2-0.2,0.5c0.1,0.2,0.3,0.3,0.4,0.3l0,0c0.1,0,0.2,0,0.3,0
	c0.6,0,1.1-0.1,1.8-0.4c0.3-0.1,0.5-0.3,0.8-0.6c0.7-0.9,1.3-1.9,1.7-3.2c0.7,0.8,2.1,2.6,2.5,3.1l0,0c0,0,0.1,0.2,0.3,0.2
	c0,0,0.1,0,0.1,0c0.1-0.1,0.2-0.2,0.2-0.3c0.1-0.3,0.1-0.5,0.1-0.9c0.1-0.7-0.1-1.3-0.6-1.8c-0.4-0.4-0.8-0.8-1.1-1.3
	c-0.2-0.2-0.3-0.4-0.5-0.6l0-0.1l-0.1,0c0,0-0.1,0-0.1,0c-0.1,0-0.2,0.1-0.3,0.1c0,0,0,0,0,0l0,0l0,0c0.1-0.5,0.2-1,0.2-1.2l1.9,0
	l1.5,0l0-0.2C12.9,12.3,12.8,11.9,12.7,11.6z M20.2,5.6h-7.1l0,12.3h1.3l0.6,1.6l2.3-1.6h2.9V5.6z"/>
</svg>
