<!DOCTYPE svg>
<svg version="1.1" xmlns="http://www.w3.org/2000/svg" width="24px" height="24px" xml:space="preserve">
<path fill="#FFFFFF" d="M12,0C5.4,0,0,5.4,0,12c0,5.6,3.9,10.4,9.2,11.7c0.1-0.3,0.1-0.5,0.1-0.6c0-0.7,0-3.3,0-4
	c-0.5,0-1.1,0.1-1.6,0.1c-1.1-0.1-2-0.5-2.4-1.6C5,16.8,4.6,16.2,4,15.8c-0.1-0.1-0.2-0.2-0.3-0.3c-0.1-0.1-0.1-0.3,0.1-0.3
	c0.2,0,0.4-0.1,0.6,0c0.7,0.1,1.2,0.6,1.6,1.2c0.8,1.2,1.9,1.5,3.2,1c0.1,0,0.2-0.1,0.2-0.2c0.1-0.5,0.3-1,0.7-1.4
	c-0.4-0.1-0.8-0.1-1.2-0.2c-1.1-0.3-2.2-0.7-2.9-1.7c-0.6-0.8-0.9-1.7-1-2.6c-0.2-1.5,0-2.9,1-4.1C5.9,7,5.9,6.9,5.9,6.8
	C5.6,6,5.7,5.1,5.9,4.3c0.1-0.4,0.2-0.5,0.6-0.4c0,0,0.1,0,0.1,0C7.5,4.1,8.3,4.5,9.1,5C9.2,5,9.3,5.1,9.4,5.1
	c1.8-0.4,3.6-0.4,5.5,0c0.1,0,0.2,0,0.3-0.1c0.4-0.2,0.8-0.5,1.2-0.7c0.5-0.2,1-0.4,1.6-0.4c0.1,0,0.2,0.1,0.3,0.2
	c0.3,0.9,0.4,1.8,0.1,2.7c0,0.1,0,0.2,0.1,0.3c0.3,0.5,0.6,0.9,0.8,1.4c0.5,1.6,0.3,3.1-0.4,4.6c-0.6,1.3-1.8,2-3.2,2.4
	c-0.5,0.1-0.9,0.2-1.5,0.3c0.7,0.7,0.8,1.5,0.8,2.4c0,0.9,0,3.7,0,4.6c0,0.2,0,0.5,0.1,0.8c5.1-1.4,8.8-6,8.8-11.6
	C24,5.4,18.6,0,12,0z"/>
</svg>
